<svg width="56.000000" height="56.000000" viewBox="0 0 56 56" fill="none" xmlns="http://www.w3.org/2000/svg" xmlns:xlink="http://www.w3.org/1999/xlink">
	<desc>
			Created with Pixso.
	</desc>
	<defs/>
	<path id="Frame 40" d="M0 28C0 12.53 12.53 0 28 0C43.46 0 56 12.53 56 28C56 43.46 43.46 56 28 56L0 56L0 28Z" fill="#2770F1" fill-opacity="1.000000" fill-rule="evenodd"/>
	<path id="Vector" d="M27.45 24.62C27.45 24.17 27.45 23.89 27.45 23.62C27.45 21.79 27.45 19.98 27.45 18.15C27.45 17.45 27.72 16.89 28.38 16.54C29.03 16.21 29.66 16.26 30.24 16.7C34.71 20.01 39.16 23.31 43.61 26.64C44.57 27.36 44.57 28.59 43.61 29.31C39.14 32.66 34.66 35.97 30.18 39.3C29.63 39.7 29.03 39.78 28.4 39.47C27.75 39.14 27.45 38.58 27.45 37.88C27.44 36.08 27.45 34.28 27.45 32.48C27.45 32.17 27.45 31.86 27.45 31.37C27.12 31.59 26.9 31.75 26.69 31.91C23.43 34.33 20.18 36.75 16.91 39.16C15.76 40.02 14.42 39.66 14.07 38.42C14.01 38.17 14.01 37.91 14.01 37.66C14.01 31.23 14.01 24.79 14 18.37C14 17.57 14.2 16.92 14.96 16.56C15.7 16.2 16.36 16.4 17.01 16.89C20.43 19.4 23.85 21.93 27.45 24.62ZM17.4 34.61C20.43 32.36 23.35 30.19 26.33 27.97C23.32 25.73 20.42 23.56 17.4 21.33C17.4 25.79 17.4 30.11 17.4 34.61ZM30.91 34.59C33.92 32.34 36.84 30.19 39.8 27.97C36.79 25.73 33.89 23.58 30.91 21.36C30.91 25.83 30.91 30.14 30.91 34.59Z" fill="#FFFFFF" fill-opacity="1.000000" fill-rule="nonzero"/>
</svg>
