<svg width="126.000000" height="327.000000" viewBox="0 0 126 327" fill="none" xmlns="http://www.w3.org/2000/svg" xmlns:xlink="http://www.w3.org/1999/xlink">
	<desc>
			Created with Pixso.
	</desc>
	<defs/>
	<path id="Union" d="M3.5 7C1.56 7 0 5.43 0 3.5C0 1.56 1.56 0 3.5 0C5.43 0 7 1.56 7 3.5C7 5.43 5.43 7 3.5 7ZM24 3.5C24 5.43 22.43 7 20.5 7C18.56 7 17 5.43 17 3.5C17 1.56 18.56 0 20.5 0C22.43 0 24 1.56 24 3.5ZM41 3.5C41 5.43 39.43 7 37.5 7C35.56 7 34 5.43 34 3.5C34 1.56 35.56 0 37.5 0C39.43 0 41 1.56 41 3.5ZM58 3.5C58 5.43 56.43 7 54.5 7C52.56 7 51 5.43 51 3.5C51 1.56 52.56 0 54.5 0C56.43 0 58 1.56 58 3.5ZM71.5 7C69.56 7 68 5.43 68 3.5C68 1.56 69.56 0 71.5 0C73.43 0 75 1.56 75 3.5C75 5.43 73.43 7 71.5 7ZM88.5 7C86.56 7 85 5.43 85 3.5C85 1.56 86.56 0 88.5 0C90.43 0 92 1.56 92 3.5C92 5.43 90.43 7 88.5 7ZM105.5 7C103.56 7 102 5.43 102 3.5C102 1.56 103.56 0 105.5 0C107.43 0 109 1.56 109 3.5C109 5.43 107.43 7 105.5 7ZM122.5 7C120.56 7 119 5.43 119 3.5C119 1.56 120.56 0 122.5 0C124.43 0 126 1.56 126 3.5C126 5.43 124.43 7 122.5 7ZM3.5 23C1.56 23 0 21.43 0 19.5C0 17.56 1.56 16 3.5 16C5.43 16 7 17.56 7 19.5C7 21.43 5.43 23 3.5 23ZM20.5 23C18.56 23 17 21.43 17 19.5C17 17.56 18.56 16 20.5 16C22.43 16 24 17.56 24 19.5C24 21.43 22.43 23 20.5 23ZM37.5 23C35.56 23 34 21.43 34 19.5C34 17.56 35.56 16 37.5 16C39.43 16 41 17.56 41 19.5C41 21.43 39.43 23 37.5 23ZM54.5 23C52.56 23 51 21.43 51 19.5C51 17.56 52.56 16 54.5 16C56.43 16 58 17.56 58 19.5C58 21.43 56.43 23 54.5 23ZM75 19.5C75 21.43 73.43 23 71.5 23C69.56 23 68 21.43 68 19.5C68 17.56 69.56 16 71.5 16C73.43 16 75 17.56 75 19.5ZM92 19.5C92 21.43 90.43 23 88.5 23C86.56 23 85 21.43 85 19.5C85 17.56 86.56 16 88.5 16C90.43 16 92 17.56 92 19.5ZM109 19.5C109 21.43 107.43 23 105.5 23C103.56 23 102 21.43 102 19.5C102 17.56 103.56 16 105.5 16C107.43 16 109 17.56 109 19.5ZM126 19.5C126 21.43 124.43 23 122.5 23C120.56 23 119 21.43 119 19.5C119 17.56 120.56 16 122.5 16C124.43 16 126 17.56 126 19.5ZM7 35.5C7 37.43 5.43 39 3.5 39C1.56 39 0 37.43 0 35.5C0 33.56 1.56 32 3.5 32C5.43 32 7 33.56 7 35.5ZM24 35.5C24 37.43 22.43 39 20.5 39C18.56 39 17 37.43 17 35.5C17 33.56 18.56 32 20.5 32C22.43 32 24 33.56 24 35.5ZM41 35.5C41 37.43 39.43 39 37.5 39C35.56 39 34 37.43 34 35.5C34 33.56 35.56 32 37.5 32C39.43 32 41 33.56 41 35.5ZM58 35.5C58 37.43 56.43 39 54.5 39C52.56 39 51 37.43 51 35.5C51 33.56 52.56 32 54.5 32C56.43 32 58 33.56 58 35.5ZM71.5 39C69.56 39 68 37.43 68 35.5C68 33.56 69.56 32 71.5 32C73.43 32 75 33.56 75 35.5C75 37.43 73.43 39 71.5 39ZM88.5 39C86.56 39 85 37.43 85 35.5C85 33.56 86.56 32 88.5 32C90.43 32 92 33.56 92 35.5C92 37.43 90.43 39 88.5 39ZM105.5 39C103.56 39 102 37.43 102 35.5C102 33.56 103.56 32 105.5 32C107.43 32 109 33.56 109 35.5C109 37.43 107.43 39 105.5 39ZM122.5 39C120.56 39 119 37.43 119 35.5C119 33.56 120.56 32 122.5 32C124.43 32 126 33.56 126 35.5C126 37.43 124.43 39 122.5 39ZM3.5 55C1.56 55 0 53.43 0 51.5C0 49.56 1.56 48 3.5 48C5.43 48 7 49.56 7 51.5C7 53.43 5.43 55 3.5 55ZM20.5 55C18.56 55 17 53.43 17 51.5C17 49.56 18.56 48 20.5 48C22.43 48 24 49.56 24 51.5C24 53.43 22.43 55 20.5 55ZM37.5 55C35.56 55 34 53.43 34 51.5C34 49.56 35.56 48 37.5 48C39.43 48 41 49.56 41 51.5C41 53.43 39.43 55 37.5 55ZM54.5 55C52.56 55 51 53.43 51 51.5C51 49.56 52.56 48 54.5 48C56.43 48 58 49.56 58 51.5C58 53.43 56.43 55 54.5 55ZM75 51.5C75 53.43 73.43 55 71.5 55C69.56 55 68 53.43 68 51.5C68 49.56 69.56 48 71.5 48C73.43 48 75 49.56 75 51.5ZM92 51.5C92 53.43 90.43 55 88.5 55C86.56 55 85 53.43 85 51.5C85 49.56 86.56 48 88.5 48C90.43 48 92 49.56 92 51.5ZM109 51.5C109 53.43 107.43 55 105.5 55C103.56 55 102 53.43 102 51.5C102 49.56 103.56 48 105.5 48C107.43 48 109 49.56 109 51.5ZM126 51.5C126 53.43 124.43 55 122.5 55C120.56 55 119 53.43 119 51.5C119 49.56 120.56 48 122.5 48C124.43 48 126 49.56 126 51.5ZM7 67.5C7 69.43 5.43 71 3.5 71C1.56 71 0 69.43 0 67.5C0 65.56 1.56 64 3.5 64C5.43 64 7 65.56 7 67.5ZM24 67.5C24 69.43 22.43 71 20.5 71C18.56 71 17 69.43 17 67.5C17 65.56 18.56 64 20.5 64C22.43 64 24 65.56 24 67.5ZM41 67.5C41 69.43 39.43 71 37.5 71C35.56 71 34 69.43 34 67.5C34 65.56 35.56 64 37.5 64C39.43 64 41 65.56 41 67.5ZM58 67.5C58 69.43 56.43 71 54.5 71C52.56 71 51 69.43 51 67.5C51 65.56 52.56 64 54.5 64C56.43 64 58 65.56 58 67.5ZM71.5 71C69.56 71 68 69.43 68 67.5C68 65.56 69.56 64 71.5 64C73.43 64 75 65.56 75 67.5C75 69.43 73.43 71 71.5 71ZM88.5 71C86.56 71 85 69.43 85 67.5C85 65.56 86.56 64 88.5 64C90.43 64 92 65.56 92 67.5C92 69.43 90.43 71 88.5 71ZM105.5 71C103.56 71 102 69.43 102 67.5C102 65.56 103.56 64 105.5 64C107.43 64 109 65.56 109 67.5C109 69.43 107.43 71 105.5 71ZM122.5 71C120.56 71 119 69.43 119 67.5C119 65.56 120.56 64 122.5 64C124.43 64 126 65.56 126 67.5C126 69.43 124.43 71 122.5 71ZM3.5 87C1.56 87 0 85.43 0 83.5C0 81.56 1.56 80 3.5 80C5.43 80 7 81.56 7 83.5C7 85.43 5.43 87 3.5 87ZM20.5 87C18.56 87 17 85.43 17 83.5C17 81.56 18.56 80 20.5 80C22.43 80 24 81.56 24 83.5C24 85.43 22.43 87 20.5 87ZM37.5 87C35.56 87 34 85.43 34 83.5C34 81.56 35.56 80 37.5 80C39.43 80 41 81.56 41 83.5C41 85.43 39.43 87 37.5 87ZM54.5 87C52.56 87 51 85.43 51 83.5C51 81.56 52.56 80 54.5 80C56.43 80 58 81.56 58 83.5C58 85.43 56.43 87 54.5 87ZM75 83.5C75 85.43 73.43 87 71.5 87C69.56 87 68 85.43 68 83.5C68 81.56 69.56 80 71.5 80C73.43 80 75 81.56 75 83.5ZM92 83.5C92 85.43 90.43 87 88.5 87C86.56 87 85 85.43 85 83.5C85 81.56 86.56 80 88.5 80C90.43 80 92 81.56 92 83.5ZM109 83.5C109 85.43 107.43 87 105.5 87C103.56 87 102 85.43 102 83.5C102 81.56 103.56 80 105.5 80C107.43 80 109 81.56 109 83.5ZM126 83.5C126 85.43 124.43 87 122.5 87C120.56 87 119 85.43 119 83.5C119 81.56 120.56 80 122.5 80C124.43 80 126 81.56 126 83.5ZM7 99.5C7 101.43 5.43 103 3.5 103C1.56 103 0 101.43 0 99.5C0 97.56 1.56 96 3.5 96C5.43 96 7 97.56 7 99.5ZM20.5 103C18.56 103 17 101.43 17 99.5C17 97.56 18.56 96 20.5 96C22.43 96 24 97.56 24 99.5C24 101.43 22.43 103 20.5 103ZM41 99.5C41 101.43 39.43 103 37.5 103C35.56 103 34 101.43 34 99.5C34 97.56 35.56 96 37.5 96C39.43 96 41 97.56 41 99.5ZM54.5 103C52.56 103 51 101.43 51 99.5C51 97.56 52.56 96 54.5 96C56.43 96 58 97.56 58 99.5C58 101.43 56.43 103 54.5 103ZM75 99.5C75 101.43 73.43 103 71.5 103C69.56 103 68 101.43 68 99.5C68 97.56 69.56 96 71.5 96C73.43 96 75 97.56 75 99.5ZM88.5 103C86.56 103 85 101.43 85 99.5C85 97.56 86.56 96 88.5 96C90.43 96 92 97.56 92 99.5C92 101.43 90.43 103 88.5 103ZM109 99.5C109 101.43 107.43 103 105.5 103C103.56 103 102 101.43 102 99.5C102 97.56 103.56 96 105.5 96C107.43 96 109 97.56 109 99.5ZM122.5 103C120.56 103 119 101.43 119 99.5C119 97.56 120.56 96 122.5 96C124.43 96 126 97.56 126 99.5C126 101.43 124.43 103 122.5 103ZM7 115.5C7 117.43 5.43 119 3.5 119C1.56 119 0 117.43 0 115.5C0 113.56 1.56 112 3.5 112C5.43 112 7 113.56 7 115.5ZM20.5 119C18.56 119 17 117.43 17 115.5C17 113.56 18.56 112 20.5 112C22.43 112 24 113.56 24 115.5C24 117.43 22.43 119 20.5 119ZM37.5 119C35.56 119 34 117.43 34 115.5C34 113.56 35.56 112 37.5 112C39.43 112 41 113.56 41 115.5C41 117.43 39.43 119 37.5 119ZM54.5 119C52.56 119 51 117.43 51 115.5C51 113.56 52.56 112 54.5 112C56.43 112 58 113.56 58 115.5C58 117.43 56.43 119 54.5 119ZM75 115.5C75 117.43 73.43 119 71.5 119C69.56 119 68 117.43 68 115.5C68 113.56 69.56 112 71.5 112C73.43 112 75 113.56 75 115.5ZM92 115.5C92 117.43 90.43 119 88.5 119C86.56 119 85 117.43 85 115.5C85 113.56 86.56 112 88.5 112C90.43 112 92 113.56 92 115.5ZM109 115.5C109 117.43 107.43 119 105.5 119C103.56 119 102 117.43 102 115.5C102 113.56 103.56 112 105.5 112C107.43 112 109 113.56 109 115.5ZM126 115.5C126 117.43 124.43 119 122.5 119C120.56 119 119 117.43 119 115.5C119 113.56 120.56 112 122.5 112C124.43 112 126 113.56 126 115.5ZM7 131.5C7 133.43 5.43 135 3.5 135C1.56 135 0 133.43 0 131.5C0 129.56 1.56 128 3.5 128C5.43 128 7 129.56 7 131.5ZM24 131.5C24 133.43 22.43 135 20.5 135C18.56 135 17 133.43 17 131.5C17 129.56 18.56 128 20.5 128C22.43 128 24 129.56 24 131.5ZM41 131.5C41 133.43 39.43 135 37.5 135C35.56 135 34 133.43 34 131.5C34 129.56 35.56 128 37.5 128C39.43 128 41 129.56 41 131.5ZM58 131.5C58 133.43 56.43 135 54.5 135C52.56 135 51 133.43 51 131.5C51 129.56 52.56 128 54.5 128C56.43 128 58 129.56 58 131.5ZM71.5 135C69.56 135 68 133.43 68 131.5C68 129.56 69.56 128 71.5 128C73.43 128 75 129.56 75 131.5C75 133.43 73.43 135 71.5 135ZM88.5 135C86.56 135 85 133.43 85 131.5C85 129.56 86.56 128 88.5 128C90.43 128 92 129.56 92 131.5C92 133.43 90.43 135 88.5 135ZM105.5 135C103.56 135 102 133.43 102 131.5C102 129.56 103.56 128 105.5 128C107.43 128 109 129.56 109 131.5C109 133.43 107.43 135 105.5 135ZM122.5 135C120.56 135 119 133.43 119 131.5C119 129.56 120.56 128 122.5 128C124.43 128 126 129.56 126 131.5C126 133.43 124.43 135 122.5 135ZM3.5 151C1.56 151 0 149.43 0 147.5C0 145.56 1.56 144 3.5 144C5.43 144 7 145.56 7 147.5C7 149.43 5.43 151 3.5 151ZM20.5 151C18.56 151 17 149.43 17 147.5C17 145.56 18.56 144 20.5 144C22.43 144 24 145.56 24 147.5C24 149.43 22.43 151 20.5 151ZM37.5 151C35.56 151 34 149.43 34 147.5C34 145.56 35.56 144 37.5 144C39.43 144 41 145.56 41 147.5C41 149.43 39.43 151 37.5 151ZM54.5 151C52.56 151 51 149.43 51 147.5C51 145.56 52.56 144 54.5 144C56.43 144 58 145.56 58 147.5C58 149.43 56.43 151 54.5 151ZM75 147.5C75 149.43 73.43 151 71.5 151C69.56 151 68 149.43 68 147.5C68 145.56 69.56 144 71.5 144C73.43 144 75 145.56 75 147.5ZM92 147.5C92 149.43 90.43 151 88.5 151C86.56 151 85 149.43 85 147.5C85 145.56 86.56 144 88.5 144C90.43 144 92 145.56 92 147.5ZM109 147.5C109 149.43 107.43 151 105.5 151C103.56 151 102 149.43 102 147.5C102 145.56 103.56 144 105.5 144C107.43 144 109 145.56 109 147.5ZM126 147.5C126 149.43 124.43 151 122.5 151C120.56 151 119 149.43 119 147.5C119 145.56 120.56 144 122.5 144C124.43 144 126 145.56 126 147.5ZM7 163.5C7 165.43 5.43 167 3.5 167C1.56 167 0 165.43 0 163.5C0 161.56 1.56 160 3.5 160C5.43 160 7 161.56 7 163.5ZM24 163.5C24 165.43 22.43 167 20.5 167C18.56 167 17 165.43 17 163.5C17 161.56 18.56 160 20.5 160C22.43 160 24 161.56 24 163.5ZM41 163.5C41 165.43 39.43 167 37.5 167C35.56 167 34 165.43 34 163.5C34 161.56 35.56 160 37.5 160C39.43 160 41 161.56 41 163.5ZM58 163.5C58 165.43 56.43 167 54.5 167C52.56 167 51 165.43 51 163.5C51 161.56 52.56 160 54.5 160C56.43 160 58 161.56 58 163.5ZM71.5 167C69.56 167 68 165.43 68 163.5C68 161.56 69.56 160 71.5 160C73.43 160 75 161.56 75 163.5C75 165.43 73.43 167 71.5 167ZM88.5 167C86.56 167 85 165.43 85 163.5C85 161.56 86.56 160 88.5 160C90.43 160 92 161.56 92 163.5C92 165.43 90.43 167 88.5 167ZM105.5 167C103.56 167 102 165.43 102 163.5C102 161.56 103.56 160 105.5 160C107.43 160 109 161.56 109 163.5C109 165.43 107.43 167 105.5 167ZM122.5 167C120.56 167 119 165.43 119 163.5C119 161.56 120.56 160 122.5 160C124.43 160 126 161.56 126 163.5C126 165.43 124.43 167 122.5 167ZM3.5 183C1.56 183 0 181.43 0 179.5C0 177.56 1.56 176 3.5 176C5.43 176 7 177.56 7 179.5C7 181.43 5.43 183 3.5 183ZM20.5 183C18.56 183 17 181.43 17 179.5C17 177.56 18.56 176 20.5 176C22.43 176 24 177.56 24 179.5C24 181.43 22.43 183 20.5 183ZM37.5 183C35.56 183 34 181.43 34 179.5C34 177.56 35.56 176 37.5 176C39.43 176 41 177.56 41 179.5C41 181.43 39.43 183 37.5 183ZM54.5 183C52.56 183 51 181.43 51 179.5C51 177.56 52.56 176 54.5 176C56.43 176 58 177.56 58 179.5C58 181.43 56.43 183 54.5 183ZM75 179.5C75 181.43 73.43 183 71.5 183C69.56 183 68 181.43 68 179.5C68 177.56 69.56 176 71.5 176C73.43 176 75 177.56 75 179.5ZM92 179.5C92 181.43 90.43 183 88.5 183C86.56 183 85 181.43 85 179.5C85 177.56 86.56 176 88.5 176C90.43 176 92 177.56 92 179.5ZM109 179.5C109 181.43 107.43 183 105.5 183C103.56 183 102 181.43 102 179.5C102 177.56 103.56 176 105.5 176C107.43 176 109 177.56 109 179.5ZM126 179.5C126 181.43 124.43 183 122.5 183C120.56 183 119 181.43 119 179.5C119 177.56 120.56 176 122.5 176C124.43 176 126 177.56 126 179.5ZM7 195.5C7 197.43 5.43 199 3.5 199C1.56 199 0 197.43 0 195.5C0 193.56 1.56 192 3.5 192C5.43 192 7 193.56 7 195.5ZM24 195.5C24 197.43 22.43 199 20.5 199C18.56 199 17 197.43 17 195.5C17 193.56 18.56 192 20.5 192C22.43 192 24 193.56 24 195.5ZM41 195.5C41 197.43 39.43 199 37.5 199C35.56 199 34 197.43 34 195.5C34 193.56 35.56 192 37.5 192C39.43 192 41 193.56 41 195.5ZM58 195.5C58 197.43 56.43 199 54.5 199C52.56 199 51 197.43 51 195.5C51 193.56 52.56 192 54.5 192C56.43 192 58 193.56 58 195.5ZM71.5 199C69.56 199 68 197.43 68 195.5C68 193.56 69.56 192 71.5 192C73.43 192 75 193.56 75 195.5C75 197.43 73.43 199 71.5 199ZM88.5 199C86.56 199 85 197.43 85 195.5C85 193.56 86.56 192 88.5 192C90.43 192 92 193.56 92 195.5C92 197.43 90.43 199 88.5 199ZM105.5 199C103.56 199 102 197.43 102 195.5C102 193.56 103.56 192 105.5 192C107.43 192 109 193.56 109 195.5C109 197.43 107.43 199 105.5 199ZM122.5 199C120.56 199 119 197.43 119 195.5C119 193.56 120.56 192 122.5 192C124.43 192 126 193.56 126 195.5C126 197.43 124.43 199 122.5 199ZM3.5 215C1.56 215 0 213.43 0 211.5C0 209.56 1.56 208 3.5 208C5.43 208 7 209.56 7 211.5C7 213.43 5.43 215 3.5 215ZM24 211.5C24 213.43 22.43 215 20.5 215C18.56 215 17 213.43 17 211.5C17 209.56 18.56 208 20.5 208C22.43 208 24 209.56 24 211.5ZM37.5 215C35.56 215 34 213.43 34 211.5C34 209.56 35.56 208 37.5 208C39.43 208 41 209.56 41 211.5C41 213.43 39.43 215 37.5 215ZM58 211.5C58 213.43 56.43 215 54.5 215C52.56 215 51 213.43 51 211.5C51 209.56 52.56 208 54.5 208C56.43 208 58 209.56 58 211.5ZM71.5 215C69.56 215 68 213.43 68 211.5C68 209.56 69.56 208 71.5 208C73.43 208 75 209.56 75 211.5C75 213.43 73.43 215 71.5 215ZM92 211.5C92 213.43 90.43 215 88.5 215C86.56 215 85 213.43 85 211.5C85 209.56 86.56 208 88.5 208C90.43 208 92 209.56 92 211.5ZM105.5 215C103.56 215 102 213.43 102 211.5C102 209.56 103.56 208 105.5 208C107.43 208 109 209.56 109 211.5C109 213.43 107.43 215 105.5 215ZM126 211.5C126 213.43 124.43 215 122.5 215C120.56 215 119 213.43 119 211.5C119 209.56 120.56 208 122.5 208C124.43 208 126 209.56 126 211.5ZM7 227.5C7 229.43 5.43 231 3.5 231C1.56 231 0 229.43 0 227.5C0 225.56 1.56 224 3.5 224C5.43 224 7 225.56 7 227.5ZM20.5 231C18.56 231 17 229.43 17 227.5C17 225.56 18.56 224 20.5 224C22.43 224 24 225.56 24 227.5C24 229.43 22.43 231 20.5 231ZM37.5 231C35.56 231 34 229.43 34 227.5C34 225.56 35.56 224 37.5 224C39.43 224 41 225.56 41 227.5C41 229.43 39.43 231 37.5 231ZM54.5 231C52.56 231 51 229.43 51 227.5C51 225.56 52.56 224 54.5 224C56.43 224 58 225.56 58 227.5C58 229.43 56.43 231 54.5 231ZM75 227.5C75 229.43 73.43 231 71.5 231C69.56 231 68 229.43 68 227.5C68 225.56 69.56 224 71.5 224C73.43 224 75 225.56 75 227.5ZM92 227.5C92 229.43 90.43 231 88.5 231C86.56 231 85 229.43 85 227.5C85 225.56 86.56 224 88.5 224C90.43 224 92 225.56 92 227.5ZM109 227.5C109 229.43 107.43 231 105.5 231C103.56 231 102 229.43 102 227.5C102 225.56 103.56 224 105.5 224C107.43 224 109 225.56 109 227.5ZM126 227.5C126 229.43 124.43 231 122.5 231C120.56 231 119 229.43 119 227.5C119 225.56 120.56 224 122.5 224C124.43 224 126 225.56 126 227.5ZM7 243.5C7 245.43 5.43 247 3.5 247C1.56 247 0 245.43 0 243.5C0 241.56 1.56 240 3.5 240C5.43 240 7 241.56 7 243.5ZM24 243.5C24 245.43 22.43 247 20.5 247C18.56 247 17 245.43 17 243.5C17 241.56 18.56 240 20.5 240C22.43 240 24 241.56 24 243.5ZM41 243.5C41 245.43 39.43 247 37.5 247C35.56 247 34 245.43 34 243.5C34 241.56 35.56 240 37.5 240C39.43 240 41 241.56 41 243.5ZM58 243.5C58 245.43 56.43 247 54.5 247C52.56 247 51 245.43 51 243.5C51 241.56 52.56 240 54.5 240C56.43 240 58 241.56 58 243.5ZM71.5 247C69.56 247 68 245.43 68 243.5C68 241.56 69.56 240 71.5 240C73.43 240 75 241.56 75 243.5C75 245.43 73.43 247 71.5 247ZM88.5 247C86.56 247 85 245.43 85 243.5C85 241.56 86.56 240 88.5 240C90.43 240 92 241.56 92 243.5C92 245.43 90.43 247 88.5 247ZM105.5 247C103.56 247 102 245.43 102 243.5C102 241.56 103.56 240 105.5 240C107.43 240 109 241.56 109 243.5C109 245.43 107.43 247 105.5 247ZM122.5 247C120.56 247 119 245.43 119 243.5C119 241.56 120.56 240 122.5 240C124.43 240 126 241.56 126 243.5C126 245.43 124.43 247 122.5 247ZM3.5 263C1.56 263 0 261.43 0 259.5C0 257.56 1.56 256 3.5 256C5.43 256 7 257.56 7 259.5C7 261.43 5.43 263 3.5 263ZM20.5 263C18.56 263 17 261.43 17 259.5C17 257.56 18.56 256 20.5 256C22.43 256 24 257.56 24 259.5C24 261.43 22.43 263 20.5 263ZM37.5 263C35.56 263 34 261.43 34 259.5C34 257.56 35.56 256 37.5 256C39.43 256 41 257.56 41 259.5C41 261.43 39.43 263 37.5 263ZM54.5 263C52.56 263 51 261.43 51 259.5C51 257.56 52.56 256 54.5 256C56.43 256 58 257.56 58 259.5C58 261.43 56.43 263 54.5 263ZM75 259.5C75 261.43 73.43 263 71.5 263C69.56 263 68 261.43 68 259.5C68 257.56 69.56 256 71.5 256C73.43 256 75 257.56 75 259.5ZM92 259.5C92 261.43 90.43 263 88.5 263C86.56 263 85 261.43 85 259.5C85 257.56 86.56 256 88.5 256C90.43 256 92 257.56 92 259.5ZM109 259.5C109 261.43 107.43 263 105.5 263C103.56 263 102 261.43 102 259.5C102 257.56 103.56 256 105.5 256C107.43 256 109 257.56 109 259.5ZM126 259.5C126 261.43 124.43 263 122.5 263C120.56 263 119 261.43 119 259.5C119 257.56 120.56 256 122.5 256C124.43 256 126 257.56 126 259.5ZM7 275.5C7 277.43 5.43 279 3.5 279C1.56 279 0 277.43 0 275.5C0 273.56 1.56 272 3.5 272C5.43 272 7 273.56 7 275.5ZM24 275.5C24 277.43 22.43 279 20.5 279C18.56 279 17 277.43 17 275.5C17 273.56 18.56 272 20.5 272C22.43 272 24 273.56 24 275.5ZM41 275.5C41 277.43 39.43 279 37.5 279C35.56 279 34 277.43 34 275.5C34 273.56 35.56 272 37.5 272C39.43 272 41 273.56 41 275.5ZM58 275.5C58 277.43 56.43 279 54.5 279C52.56 279 51 277.43 51 275.5C51 273.56 52.56 272 54.5 272C56.43 272 58 273.56 58 275.5ZM71.5 279C69.56 279 68 277.43 68 275.5C68 273.56 69.56 272 71.5 272C73.43 272 75 273.56 75 275.5C75 277.43 73.43 279 71.5 279ZM88.5 279C86.56 279 85 277.43 85 275.5C85 273.56 86.56 272 88.5 272C90.43 272 92 273.56 92 275.5C92 277.43 90.43 279 88.5 279ZM105.5 279C103.56 279 102 277.43 102 275.5C102 273.56 103.56 272 105.5 272C107.43 272 109 273.56 109 275.5C109 277.43 107.43 279 105.5 279ZM122.5 279C120.56 279 119 277.43 119 275.5C119 273.56 120.56 272 122.5 272C124.43 272 126 273.56 126 275.5C126 277.43 124.43 279 122.5 279ZM3.5 295C1.56 295 0 293.43 0 291.5C0 289.56 1.56 288 3.5 288C5.43 288 7 289.56 7 291.5C7 293.43 5.43 295 3.5 295ZM20.5 295C18.56 295 17 293.43 17 291.5C17 289.56 18.56 288 20.5 288C22.43 288 24 289.56 24 291.5C24 293.43 22.43 295 20.5 295ZM37.5 295C35.56 295 34 293.43 34 291.5C34 289.56 35.56 288 37.5 288C39.43 288 41 289.56 41 291.5C41 293.43 39.43 295 37.5 295ZM54.5 295C52.56 295 51 293.43 51 291.5C51 289.56 52.56 288 54.5 288C56.43 288 58 289.56 58 291.5C58 293.43 56.43 295 54.5 295ZM75 291.5C75 293.43 73.43 295 71.5 295C69.56 295 68 293.43 68 291.5C68 289.56 69.56 288 71.5 288C73.43 288 75 289.56 75 291.5ZM92 291.5C92 293.43 90.43 295 88.5 295C86.56 295 85 293.43 85 291.5C85 289.56 86.56 288 88.5 288C90.43 288 92 289.56 92 291.5ZM109 291.5C109 293.43 107.43 295 105.5 295C103.56 295 102 293.43 102 291.5C102 289.56 103.56 288 105.5 288C107.43 288 109 289.56 109 291.5ZM126 291.5C126 293.43 124.43 295 122.5 295C120.56 295 119 293.43 119 291.5C119 289.56 120.56 288 122.5 288C124.43 288 126 289.56 126 291.5ZM7 307.5C7 309.43 5.43 311 3.5 311C1.56 311 0 309.43 0 307.5C0 305.56 1.56 304 3.5 304C5.43 304 7 305.56 7 307.5ZM24 307.5C24 309.43 22.43 311 20.5 311C18.56 311 17 309.43 17 307.5C17 305.56 18.56 304 20.5 304C22.43 304 24 305.56 24 307.5ZM41 307.5C41 309.43 39.43 311 37.5 311C35.56 311 34 309.43 34 307.5C34 305.56 35.56 304 37.5 304C39.43 304 41 305.56 41 307.5ZM58 307.5C58 309.43 56.43 311 54.5 311C52.56 311 51 309.43 51 307.5C51 305.56 52.56 304 54.5 304C56.43 304 58 305.56 58 307.5ZM71.5 311C69.56 311 68 309.43 68 307.5C68 305.56 69.56 304 71.5 304C73.43 304 75 305.56 75 307.5C75 309.43 73.43 311 71.5 311ZM88.5 311C86.56 311 85 309.43 85 307.5C85 305.56 86.56 304 88.5 304C90.43 304 92 305.56 92 307.5C92 309.43 90.43 311 88.5 311ZM105.5 311C103.56 311 102 309.43 102 307.5C102 305.56 103.56 304 105.5 304C107.43 304 109 305.56 109 307.5C109 309.43 107.43 311 105.5 311ZM122.5 311C120.56 311 119 309.43 119 307.5C119 305.56 120.56 304 122.5 304C124.43 304 126 305.56 126 307.5C126 309.43 124.43 311 122.5 311ZM3.5 327C1.56 327 0 325.43 0 323.5C0 321.56 1.56 320 3.5 320C5.43 320 7 321.56 7 323.5C7 325.43 5.43 327 3.5 327ZM24 323.5C24 325.43 22.43 327 20.5 327C18.56 327 17 325.43 17 323.5C17 321.56 18.56 320 20.5 320C22.43 320 24 321.56 24 323.5ZM37.5 327C35.56 327 34 325.43 34 323.5C34 321.56 35.56 320 37.5 320C39.43 320 41 321.56 41 323.5C41 325.43 39.43 327 37.5 327ZM58 323.5C58 325.43 56.43 327 54.5 327C52.56 327 51 325.43 51 323.5C51 321.56 52.56 320 54.5 320C56.43 320 58 321.56 58 323.5ZM71.5 327C69.56 327 68 325.43 68 323.5C68 321.56 69.56 320 71.5 320C73.43 320 75 321.56 75 323.5C75 325.43 73.43 327 71.5 327ZM92 323.5C92 325.43 90.43 327 88.5 327C86.56 327 85 325.43 85 323.5C85 321.56 86.56 320 88.5 320C90.43 320 92 321.56 92 323.5ZM105.5 327C103.56 327 102 325.43 102 323.5C102 321.56 103.56 320 105.5 320C107.43 320 109 321.56 109 323.5C109 325.43 107.43 327 105.5 327ZM126 323.5C126 325.43 124.43 327 122.5 327C120.56 327 119 325.43 119 323.5C119 321.56 120.56 320 122.5 320C124.43 320 126 321.56 126 323.5Z" fill="#C0D3FB" fill-opacity="1.000000" fill-rule="evenodd"/>
</svg>
