<svg width="48.000000" height="48.000000" viewBox="0 0 48 48" fill="none" xmlns="http://www.w3.org/2000/svg" xmlns:xlink="http://www.w3.org/1999/xlink">
	<desc>
			Created with Pixso.
	</desc>
	<defs>
		<clipPath id="clip2_1036">
			<rect id="Frame 105" rx="23.500000" width="47.000000" height="47.000000" transform="translate(0.500000 0.500000)" fill="white" fill-opacity="0"/>
		</clipPath>
	</defs>
	<rect id="Frame 105" rx="23.500000" width="47.000000" height="47.000000" transform="translate(0.500000 0.500000)" fill="#F1F5FF" fill-opacity="1.000000"/>
	<g clip-path="url(#clip2_1036)">
		<path id="Vector" d="M17 25.33C17 23.53 17 21.81 17 20C18.47 20 19.9 20 21.42 20C21.42 19.67 21.41 19.4 21.42 19.15C21.47 17.5 21.35 15.84 21.6 14.23C22.08 11.11 24.36 9.13 27.47 9.01C28.96 8.95 30.47 9.08 32 9.13C32 10.79 32 12.34 32 13.98C31.66 13.98 31.33 13.98 31 13.98C30.24 14 29.49 14 28.73 14.03C27.56 14.09 26.86 14.69 26.79 15.88C26.71 17.22 26.77 18.57 26.77 19.99C28.45 19.99 30.12 19.99 31.84 19.99C31.61 21.8 31.39 23.53 31.17 25.3C29.7 25.3 28.27 25.3 26.77 25.3C26.77 29.89 26.77 34.42 26.77 39C24.96 39 23.23 39 21.42 39C21.42 34.46 21.42 29.93 21.42 25.33C19.92 25.33 18.48 25.33 17 25.33Z" fill="#2770F1" fill-opacity="1.000000" fill-rule="nonzero"/>
	</g>
</svg>
