<svg width="56.000000" height="56.000000" viewBox="0 0 56 56" fill="none" xmlns="http://www.w3.org/2000/svg" xmlns:xlink="http://www.w3.org/1999/xlink">
	<desc>
			Created with Pixso.
	</desc>
	<defs/>
	<path id="Frame 40" d="M0 28C0 12.53 12.53 0 28 0C43.46 0 56 12.53 56 28C56 43.46 43.46 56 28 56L0 56L0 28Z" fill="#2770F1" fill-opacity="1.000000" fill-rule="evenodd"/>
	<path id="Union" d="M28.11 15.16C32.04 12.57 36.02 12.2 40.03 14.6C45.78 18.04 46.69 25.91 41.96 30.7C39.64 33.06 37.28 35.38 34.93 37.7C33.99 38.62 33.04 39.55 32.1 40.48C31.14 41.45 30.17 42.41 29.19 43.37C28.34 44.2 27.62 44.2 26.79 43.38C25.94 42.54 25.09 41.71 24.25 40.87C20.86 37.52 17.49 34.17 14.12 30.81C10.99 27.68 10.14 23.23 11.88 19.26C13.59 15.35 17.49 12.94 21.88 13.06C24.2 13.1 26.27 13.83 28.11 15.16ZM28.06 40.6C29.06 39.61 30.06 38.61 31.05 37.62C34.05 34.64 37.02 31.67 39.98 28.68C42.91 25.73 42.88 21.05 39.99 18.11C37.1 15.18 32.44 15.08 29.35 17.89C28.48 18.68 27.87 18.65 26.97 17.89C24.35 15.66 21.4 15.2 18.27 16.57C13.5 18.65 12.33 24.91 16.02 28.64C18.67 31.34 21.36 34 24.05 36.66C25.28 37.87 26.5 39.08 27.73 40.3C27.78 40.37 27.85 40.43 27.96 40.52C27.99 40.54 28.02 40.57 28.06 40.6ZM24.2 23.96C24.57 21.54 25.9 20.21 27.91 20.17C30.02 20.13 31.36 21.42 31.81 23.96C33.03 24.03 34.11 24.48 34.88 25.49C35.39 26.17 35.63 26.93 35.63 27.76C35.62 29.75 34.38 30.98 31.83 31.52C31.81 31.62 31.79 31.73 31.77 31.84C31.73 32.09 31.69 32.34 31.61 32.59C31.14 34.29 29.48 35.45 27.77 35.3C25.9 35.13 24.48 33.8 24.29 31.99C24.25 31.62 24.16 31.47 23.76 31.43C21.73 31.18 20.37 29.62 20.4 27.68C20.42 25.72 21.88 24.2 23.92 24.02C24 24 24.08 23.99 24.2 23.96ZM27.97 22.98C27.42 23.05 27.1 23.37 27.08 23.94C27.07 24.17 27.07 24.4 27.07 24.63C27.07 24.86 27.07 25.09 27.07 25.32C27.04 26.26 26.51 26.8 25.58 26.81C25.38 26.82 25.19 26.81 25 26.81C24.71 26.81 24.42 26.8 24.12 26.82C23.56 26.86 23.21 27.17 23.22 27.76C23.23 28.34 23.59 28.63 24.16 28.64C24.38 28.65 24.6 28.65 24.82 28.65C25.05 28.65 25.27 28.65 25.49 28.66C26.5 28.67 27.04 29.21 27.07 30.2C27.07 30.41 27.07 30.62 27.07 30.83C27.06 31.03 27.06 31.24 27.07 31.45C27.09 32.11 27.44 32.49 28.01 32.48C28.55 32.47 28.88 32.1 28.91 31.48C28.91 31.25 28.91 31.02 28.91 30.79L28.91 30.79L28.91 30.79C28.91 30.56 28.9 30.32 28.91 30.09C28.93 29.25 29.48 28.7 30.33 28.66C30.61 28.64 30.88 28.64 31.16 28.65L31.16 28.65C31.37 28.65 31.58 28.65 31.79 28.64C32.36 28.63 32.7 28.35 32.75 27.79C32.81 27.26 32.41 26.88 31.81 26.82C31.65 26.81 31.51 26.81 31.35 26.82C29.29 26.94 28.79 26.46 28.91 24.36C28.92 24.16 28.93 23.96 28.89 23.77C28.8 23.27 28.48 23.01 27.97 22.98Z" fill="#FFFFFF" fill-opacity="1.000000" fill-rule="evenodd"/>
</svg>
