<svg width="214.000000" height="56.000000" viewBox="0 0 214 56" fill="none" xmlns="http://www.w3.org/2000/svg" xmlns:xlink="http://www.w3.org/1999/xlink">
	<desc>
			Created with Pixso.
	</desc>
	<defs/>
	<rect id="Frame 172" rx="0.000000" width="213.000000" height="55.000000" transform="translate(0.500000 0.500000)" fill="#FFFFFF" fill-opacity="0"/>
	<path id="Vector" d="M4.72 29.17Q3.4 29.17 2.49 28.56Q2.25 28.4 2.03 28.19Q1.86 28.02 1.72 27.81Q1.05 26.88 1.05 25.47L1.05 3.7Q1.05 2.39 1.66 1.48L1.66 1.48Q1.82 1.23 2.03 1.01Q2.29 0.75 2.59 0.56Q3.48 0 4.72 0Q6 0 6.87 0.59L6.87 0.59Q7.14 0.77 7.37 1.01Q7.58 1.21 7.75 1.44Q8.39 2.34 8.39 3.7L8.39 11.39L10.55 11.39L18.78 1.42C19.54 0.5 20.44 0.04 21.47 0.04C22.31 0.04 23.05 0.35 23.67 0.97C24.33 1.57 24.65 2.27 24.65 3.09C24.65 3.9 24.35 4.65 23.75 5.33L17.32 12.89C18.32 13.36 19.1 13.8 19.64 14.24C20.18 14.67 20.67 15.21 21.11 15.86C21.54 16.49 22.19 17.56 23.06 19.08L25.59 23.6C25.97 24.25 26.16 24.93 26.16 25.63C26.16 26.61 25.81 27.43 25.1 28.11C24.39 28.79 23.58 29.13 22.65 29.13C21.35 29.13 20.32 28.47 19.56 27.14L15.81 20.3C15.21 19.19 14.58 18.41 13.93 17.98C13.28 17.55 12.28 17.33 10.92 17.33L8.39 17.33L8.39 25.47Q8.39 26.71 7.83 27.59L7.83 27.59Q7.63 27.89 7.37 28.15C6.72 28.83 5.84 29.17 4.72 29.17ZM79.8 2.35C80.42 1.46 81.05 0.85 81.67 0.52C82.33 0.17 83.3 0 84.61 0C85.72 0 86.58 0.29 87.18 0.89C87.77 1.46 88.07 2.3 88.07 3.41L88.07 25.47Q88.07 26.71 87.51 27.59L87.51 27.59Q87.32 27.89 87.05 28.15C86.4 28.83 85.52 29.17 84.41 29.17C83.29 29.17 82.39 28.85 81.72 28.19C81.06 27.52 80.74 26.61 80.74 25.47L80.74 10.9L70.75 25.92C70.1 26.84 69.5 27.54 68.96 28.03C68.44 28.49 67.9 28.79 67.33 28.93C66.79 29.09 66.11 29.17 65.29 29.17C64.18 29.17 63.32 28.89 62.72 28.32C62.13 27.72 61.83 26.86 61.83 25.75L61.83 3.7C61.83 2.59 62.15 1.69 62.81 1.01C63.48 0.33 64.38 0 65.5 0C66.61 0 67.49 0.33 68.14 1.01C68.82 1.66 69.16 2.56 69.16 3.7L69.16 18.22L79.8 2.35ZM142.92 2.35C143.55 1.46 144.17 0.85 144.8 0.52C145.45 0.17 146.43 0 147.73 0C148.84 0 149.7 0.29 150.3 0.89C150.89 1.46 151.19 2.3 151.19 3.41L151.19 25.47C151.19 26.58 150.85 27.48 150.17 28.15C149.52 28.83 148.64 29.17 147.53 29.17C146.41 29.17 145.52 28.85 144.84 28.19C144.18 27.52 143.86 26.61 143.86 25.47L143.86 10.9L133.87 25.92C133.22 26.84 132.62 27.54 132.08 28.03C131.56 28.49 131.02 28.79 130.45 28.93C129.91 29.09 129.23 29.17 128.41 29.17C127.3 29.17 126.44 28.89 125.85 28.32C125.25 27.72 124.95 26.86 124.95 25.75L124.95 3.7C124.95 2.59 125.27 1.69 125.93 1.01C126.61 0.33 127.5 0 128.62 0C129.73 0 130.61 0.33 131.27 1.01Q131.47 1.21 131.64 1.44Q132.28 2.34 132.28 3.7L132.28 18.22L142.92 2.35ZM160.1 29.17C158.98 29.17 158.09 28.85 157.41 28.19Q157.24 28.02 157.09 27.81Q156.43 26.88 156.43 25.47L156.43 3.7Q156.43 2.39 157.03 1.48L157.03 1.48Q157.2 1.23 157.41 1.01C158.09 0.33 158.98 0 160.1 0C161.21 0 162.09 0.33 162.75 1.01Q162.96 1.21 163.12 1.44Q163.77 2.34 163.77 3.7L163.77 11.39L165.93 11.39L174.16 1.42C174.92 0.5 175.82 0.04 176.85 0.04C177.69 0.04 178.42 0.35 179.05 0.97C179.7 1.57 180.03 2.27 180.03 3.09Q180.03 3.45 179.95 3.79Q179.76 4.61 179.13 5.33L172.69 12.89C173.7 13.36 174.47 13.8 175.01 14.24Q175.83 14.89 176.48 15.86C176.92 16.49 177.57 17.56 178.44 19.08L180.96 23.6C181.34 24.25 181.53 24.93 181.53 25.63C181.53 26.61 181.18 27.43 180.47 28.11C179.77 28.79 178.95 29.13 178.03 29.13C176.73 29.13 175.69 28.47 174.93 27.14L171.18 20.3C170.58 19.19 169.96 18.41 169.31 17.98C168.66 17.55 167.65 17.33 166.29 17.33L163.77 17.33L163.77 25.47Q163.77 26.71 163.2 27.59L163.2 27.59Q163.01 27.89 162.75 28.15C162.09 28.83 161.21 29.17 160.1 29.17ZM213.63 24.33C213.87 24.84 214 25.35 214 25.83C214 26.73 213.63 27.49 212.89 28.11C212.19 28.74 211.37 29.05 210.45 29.05C209.83 29.05 209.25 28.89 208.74 28.56C208.22 28.23 207.81 27.75 207.52 27.1L205.68 22.99L192.48 22.99L190.6 27.1C190.3 27.75 189.88 28.23 189.34 28.56C188.82 28.89 188.25 29.05 187.63 29.05C186.7 29.05 185.86 28.74 185.1 28.11C184.37 27.49 184 26.73 184 25.83C184 25.35 184.12 24.84 184.37 24.33L195.13 2.27C195.48 1.54 196 0.99 196.68 0.61C197.38 0.2 198.16 0 199 0C199.81 0 200.57 0.2 201.28 0.61C201.99 0.99 202.52 1.54 202.87 2.27L213.63 24.33ZM116.05 0.04C117.16 0.04 118.05 0.37 118.7 1.05C119.38 1.7 119.72 2.59 119.72 3.7L119.72 25.47C119.72 26.58 119.38 27.48 118.7 28.15C118.05 28.83 117.16 29.17 116.05 29.17C114.94 29.17 114.04 28.85 113.36 28.19Q113.19 28.02 113.05 27.81Q112.38 26.88 112.38 25.47L112.38 17.33L100.64 17.33L100.64 25.47C100.64 26.58 100.31 27.48 99.63 28.15C98.97 28.83 98.09 29.17 96.98 29.17C95.86 29.17 94.97 28.85 94.29 28.19C93.63 27.52 93.31 26.61 93.31 25.47L93.31 3.7C93.31 2.59 93.63 1.7 94.29 1.05C94.97 0.37 95.86 0.04 96.98 0.04C98.09 0.04 98.97 0.37 99.63 1.05C100.31 1.7 100.64 2.59 100.64 3.7L100.64 11.39L112.38 11.39L112.38 3.7Q112.38 2.36 113.01 1.46L113.01 1.46Q113.17 1.24 113.36 1.05C114.04 0.37 114.94 0.04 116.05 0.04ZM42.23 9.92Q42.23 17.7 40.31 21.89Q38.92 24.95 36.58 26.88Q35.72 27.59 34.73 28.15C33.86 28.67 33.03 28.93 32.25 28.93C31.35 28.93 30.61 28.64 30.04 28.07Q29.64 27.65 29.43 27.16Q29.19 26.59 29.19 25.92C29.19 25.24 29.39 24.59 29.8 23.96C30.21 23.31 30.82 22.74 31.63 22.25C33.89 20.73 35.02 17.06 35.02 11.23L35.02 3.7C35.02 2.59 35.31 1.73 35.91 1.13Q35.98 1.07 36.05 1L36.05 1Q36.94 0.24 38.48 0.24L53.15 0.24C54.27 0.24 55.12 0.54 55.72 1.13C56.34 1.73 56.66 2.59 56.66 3.7L56.66 25.47C56.66 26.58 56.32 27.48 55.64 28.15C54.96 28.83 54.06 29.17 52.95 29.17C51.83 29.17 50.94 28.85 50.26 28.19C49.61 27.52 49.28 26.61 49.28 25.47L49.28 6.1L42.23 6.1L42.23 9.92ZM195 17.37L203.16 17.37L199.08 8.3L195 17.37ZM58.78 56C56.84 56 55.28 55.43 54.12 54.29C52.96 53.15 52.3 51.58 52.14 49.59L49.47 49.59L49.47 54.63C49.47 55.03 49.35 55.34 49.1 55.59C48.87 55.82 48.56 55.93 48.17 55.93C47.77 55.93 47.46 55.82 47.23 55.59C47 55.34 46.88 55.03 46.88 54.63L46.88 42.65C46.88 42.25 47 41.94 47.23 41.71C47.47 41.47 47.79 41.35 48.17 41.35C48.56 41.35 48.87 41.47 49.1 41.71C49.35 41.94 49.47 42.25 49.47 42.65L49.47 47.47L52.16 47.47C52.36 45.53 53.04 44.02 54.2 42.93C55.35 41.83 56.88 41.29 58.78 41.29C60.17 41.29 61.36 41.58 62.37 42.18C63.37 42.78 64.14 43.62 64.67 44.72C65.2 45.82 65.47 47.12 65.47 48.63C65.47 50.14 65.2 51.44 64.67 52.56C64.14 53.66 63.37 54.5 62.37 55.1C61.36 55.7 60.17 56 58.78 56ZM82.68 56C81.3 56 80.08 55.7 79.04 55.1C78 54.5 77.21 53.65 76.65 52.54C76.1 51.42 75.82 50.12 75.82 48.63C75.82 47.14 76.1 45.84 76.65 44.74C77.21 43.63 78 42.78 79.04 42.18C80.08 41.58 81.3 41.29 82.68 41.29C83.58 41.29 84.42 41.42 85.21 41.69C86 41.95 86.7 42.33 87.31 42.83C87.49 42.97 87.61 43.11 87.68 43.26C87.74 43.41 87.78 43.59 87.78 43.81C87.78 44.11 87.7 44.36 87.53 44.56C87.37 44.76 87.17 44.87 86.94 44.87C86.67 44.87 86.39 44.77 86.11 44.58C85.52 44.15 84.98 43.85 84.48 43.69C83.98 43.51 83.42 43.42 82.81 43.42Q81.16 43.42 80.13 44.22Q79.83 44.45 79.59 44.74C78.87 45.63 78.51 46.92 78.51 48.63C78.51 50.35 78.87 51.65 79.59 52.54C80.32 53.42 81.39 53.86 82.81 53.86C83.39 53.86 83.93 53.77 84.42 53.59C84.92 53.42 85.48 53.12 86.11 52.7C86.24 52.62 86.38 52.55 86.52 52.5C86.65 52.44 86.79 52.41 86.94 52.41C87.17 52.41 87.37 52.52 87.53 52.72C87.7 52.92 87.78 53.17 87.78 53.47C87.78 53.68 87.74 53.86 87.68 54.02C87.61 54.17 87.49 54.31 87.31 54.45C86.7 54.95 86 55.34 85.21 55.61C84.42 55.87 83.58 56 82.68 56ZM1.28 55.93C0.88 55.93 0.57 55.82 0.34 55.59C0.11 55.34 0 55.02 0 54.61L0 42.75C0 42.37 0.12 42.06 0.36 41.83C0.61 41.59 0.92 41.47 1.3 41.47L10.92 41.47C11.3 41.47 11.6 41.59 11.83 41.83C12.08 42.06 12.2 42.37 12.2 42.75L12.2 54.63C12.2 55.03 12.08 55.34 11.83 55.59C11.6 55.82 11.3 55.93 10.92 55.93C10.52 55.93 10.21 55.82 9.98 55.59C9.75 55.34 9.63 55.03 9.63 54.63L9.63 43.56L2.58 43.56L2.58 54.63C2.58 55.03 2.46 55.34 2.22 55.59C1.99 55.82 1.67 55.93 1.28 55.93ZM28.03 45.31C28.03 47.33 27.9 49.02 27.63 50.36C27.37 51.69 26.97 52.77 26.42 53.59C25.89 54.41 25.21 55.07 24.37 55.59C24.09 55.75 23.82 55.83 23.55 55.83C23.24 55.83 22.97 55.72 22.76 55.51C22.55 55.29 22.45 55.03 22.45 54.73C22.45 54.5 22.52 54.28 22.65 54.06C22.79 53.85 22.99 53.66 23.27 53.49C24.03 53.09 24.59 52.29 24.96 51.11Q25.51 49.32 25.51 45.74L25.51 42.71C25.51 42.32 25.62 42.01 25.83 41.79C26.05 41.58 26.36 41.47 26.75 41.47L34.39 41.47C34.79 41.47 35.08 41.58 35.29 41.79C35.5 42.01 35.61 42.32 35.61 42.71L35.61 54.63C35.61 55.03 35.49 55.34 35.25 55.59C35.02 55.82 34.71 55.93 34.33 55.93C33.94 55.93 33.62 55.82 33.39 55.59C33.16 55.34 33.05 55.03 33.05 54.63L33.05 43.56L28.03 43.56L28.03 45.31ZM58.78 53.9C60.09 53.9 61.09 53.45 61.8 52.56C62.5 51.65 62.86 50.34 62.86 48.63C62.86 46.92 62.5 45.62 61.8 44.72Q61.48 44.31 61.07 44.02Q60.15 43.38 58.78 43.38C57.46 43.38 56.45 43.83 55.75 44.72C55.05 45.62 54.71 46.92 54.71 48.63C54.71 50.34 55.05 51.65 55.75 52.56C56.45 53.45 57.46 53.9 58.78 53.9Z" fill="#1B315F" fill-opacity="1.000000" fill-rule="evenodd"/>
	<rect id="Rectangle 82" x="103.000000" y="44.000000" rx="4.000000" width="8.000000" height="8.000000" fill="#689BF5" fill-opacity="1.000000"/>
	<rect id="Rectangle 83" x="119.000000" y="44.000000" rx="4.000000" width="8.000000" height="8.000000" fill="#689BF5" fill-opacity="1.000000"/>
	<rect id="Rectangle 84" x="135.000000" y="44.000000" rx="4.000000" width="8.000000" height="8.000000" fill="#689BF5" fill-opacity="1.000000"/>
</svg>
