<svg width="28.173340" height="28.173340" viewBox="0 0 28.1733 28.1733" fill="none" xmlns="http://www.w3.org/2000/svg" xmlns:xlink="http://www.w3.org/1999/xlink">
	<desc>
			Created with Pixso.
	</desc>
	<defs/>
	<path id="Union" d="M18.95 21.78C16.99 23.17 14.59 24 12 24C5.37 24 0 18.62 0 12C0 5.37 5.37 0 12 0C18.62 0 24 5.37 24 12C24 14.59 23.17 16.99 21.78 18.95L27.58 24.75C28.36 25.54 28.36 26.8 27.58 27.58C26.8 28.36 25.54 28.36 24.75 27.58L18.95 21.78ZM20 12C20 16.41 16.41 20 12 20C7.58 20 4 16.41 4 12C4 7.58 7.58 4 12 4C16.41 4 20 7.58 20 12Z" fill="#2770F1" fill-opacity="1.000000" fill-rule="evenodd"/>
</svg>
