<svg width="48.000000" height="48.000000" viewBox="0 0 48 48" fill="none" xmlns="http://www.w3.org/2000/svg" xmlns:xlink="http://www.w3.org/1999/xlink">
	<desc>
			Created with Pixso.
	</desc>
	<defs>
		<clipPath id="clip2_1040">
			<rect id="Frame 107" rx="23.500000" width="47.000000" height="47.000000" transform="translate(0.500000 0.500000)" fill="white" fill-opacity="0"/>
		</clipPath>
	</defs>
	<rect id="Frame 107" rx="23.500000" width="47.000000" height="47.000000" transform="translate(0.500000 0.500000)" fill="#F1F5FF" fill-opacity="1.000000"/>
	<g clip-path="url(#clip2_1040)">
		<path id="Vector" d="M22.06 26.66C23.16 25.64 24.22 24.67 25.28 23.68C26.83 22.25 28.38 20.81 29.92 19.37C30.1 19.21 30.19 18.96 30.32 18.75C30.02 18.56 29.81 18.8 29.6 18.93C26.36 21.04 23.13 23.15 19.9 25.27C19.68 25.41 19.5 25.44 19.25 25.36C18.12 24.94 16.97 24.55 15.83 24.16C15.81 24.15 15.78 24.15 15.76 24.13C15.39 23.99 15.01 23.81 15 23.35C14.98 22.89 15.38 22.75 15.71 22.62C21.02 20.47 26.34 18.33 31.65 16.19C31.89 16.09 32.14 16.02 32.39 16C32.82 15.96 33.06 16.24 32.98 16.68C32.35 19.98 31.71 23.29 31.06 26.58C30.78 28.07 30.49 29.56 30.2 31.04C30.02 31.97 29.19 32.28 28.45 31.7C26.51 30.18 24.58 28.65 22.64 27.13C22.47 26.99 22.29 26.85 22.06 26.66Z" fill="#2770F1" fill-opacity="1.000000" fill-rule="nonzero"/>
	</g>
</svg>
