<svg width="48.000000" height="48.000000" viewBox="0 0 48 48" fill="none" xmlns="http://www.w3.org/2000/svg" xmlns:xlink="http://www.w3.org/1999/xlink">
	<desc>
			Created with Pixso.
	</desc>
	<defs>
		<clipPath id="clip2_1038">
			<rect id="Frame 106" rx="23.500000" width="47.000000" height="47.000000" transform="translate(0.500000 0.500000)" fill="white" fill-opacity="0"/>
		</clipPath>
	</defs>
	<rect id="Frame 106" rx="23.500000" width="47.000000" height="47.000000" transform="translate(0.500000 0.500000)" fill="#F1F5FF" fill-opacity="1.000000"/>
	<g clip-path="url(#clip2_1038)">
		<path id="Union" d="M24.13 35.51C22.3 35.43 20.57 35.03 18.92 34.24C18.72 34.14 18.41 34.12 18.18 34.19C17.12 34.52 16.06 34.85 15 35.19C14.19 35.45 13.37 35.7 12.56 35.96C12.4 36 12.14 36.02 12.06 35.93C11.97 35.84 11.98 35.58 12.03 35.43C12.26 34.76 12.48 34.08 12.71 33.4C13.09 32.28 13.47 31.15 13.84 30.02C13.91 29.81 13.89 29.52 13.79 29.32C10.04 22.26 14.06 13.78 21.9 12.22C28.47 10.92 34.86 15.41 35.87 22.04C36.79 28.13 32.56 34.07 26.51 35.2C25.98 35.3 25.46 35.35 24.93 35.41C24.66 35.44 24.4 35.47 24.13 35.51ZM15.64 32.42C15.95 32.32 16.25 32.22 16.54 32.13C17.17 31.94 17.76 31.75 18.35 31.55C18.72 31.41 19.02 31.45 19.36 31.66C21.32 32.83 23.43 33.26 25.66 32.86C29.33 32.2 31.87 30.1 33.04 26.57C34.2 23.11 33.39 19.95 30.89 17.31C27 13.2 20.14 13.61 16.75 18.11C14.28 21.38 14.16 25.5 16.43 28.92C16.61 29.19 16.66 29.43 16.55 29.74C16.34 30.31 16.15 30.88 15.95 31.48C15.85 31.79 15.75 32.1 15.64 32.42ZM21.79 22.93C22.71 24.22 23.79 25.32 25.24 26.03C25.56 26.19 25.78 26.19 25.98 25.88C26.08 25.73 26.19 25.6 26.3 25.46C26.39 25.36 26.48 25.25 26.56 25.13C26.85 24.72 27.22 24.66 27.66 24.85C27.93 24.98 28.2 25.11 28.47 25.23C28.92 25.45 29.37 25.66 29.82 25.87C30.23 26.05 30.35 26.36 30.32 26.78C30.23 28.06 29.33 29.04 28.06 29.29C27.23 29.46 26.44 29.26 25.66 29.05C23.31 28.39 21.47 26.99 20.04 25.05C19.44 24.22 18.89 23.33 18.48 22.4C18.02 21.35 18.18 20.26 18.76 19.25C19.26 18.39 20.24 18.22 21.04 18.25C21.27 18.26 21.57 18.55 21.68 18.77C22.05 19.51 22.37 20.27 22.65 21.05C22.72 21.27 22.69 21.59 22.57 21.8C22.42 22.1 22.22 22.36 22 22.64C21.93 22.73 21.86 22.83 21.79 22.93Z" fill="#2770F1" fill-opacity="1.000000" fill-rule="evenodd"/>
	</g>
</svg>
