<svg width="48.000000" height="48.000000" viewBox="0 0 48 48" fill="none" xmlns="http://www.w3.org/2000/svg" xmlns:xlink="http://www.w3.org/1999/xlink">
	<desc>
			Created with Pixso.
	</desc>
	<defs>
		<clipPath id="clip2_1034">
			<rect id="Frame 104" rx="23.500000" width="47.000000" height="47.000000" transform="translate(0.500000 0.500000)" fill="white" fill-opacity="0"/>
		</clipPath>
	</defs>
	<rect id="Frame 104" rx="23.500000" width="47.000000" height="47.000000" transform="translate(0.500000 0.500000)" fill="#2770F1" fill-opacity="1.000000"/>
	<g clip-path="url(#clip2_1034)">
		<path id="Vector" d="M19.9 17.8C20.24 17.6 20.55 17.3 20.9 17.23C22.29 16.92 23.7 16.94 25.09 17.16C25.79 17.27 26.05 17.61 26.05 18.36C26.06 19.48 26.01 20.59 26 21.71C26 22.17 25.99 22.64 26.08 23.1C26.12 23.34 26.31 23.66 26.52 23.77C26.67 23.84 27.01 23.67 27.18 23.51C28.15 22.6 28.75 21.42 29.36 20.25C29.68 19.64 29.94 19.01 30.2 18.38C30.39 17.89 30.66 17.66 31.21 17.67C32.47 17.7 33.74 17.65 35 17.63C35.87 17.62 36.23 18.04 35.84 18.82C35.3 19.87 34.65 20.87 34 21.86C33.48 22.64 32.89 23.36 32.37 24.13C31.91 24.8 31.97 25.19 32.52 25.79C33.4 26.74 34.32 27.65 35.17 28.63C35.48 28.98 35.72 29.44 35.89 29.89C36.1 30.45 35.83 30.87 35.25 30.9C33.95 30.97 32.65 31.02 31.36 30.99C30.65 30.98 30.06 30.56 29.57 30.05C29.09 29.55 28.64 29.01 28.17 28.49C28.08 28.39 27.98 28.29 27.87 28.19C26.97 27.3 26.45 27.85 26.18 28.71C26.06 29.1 26.06 29.53 26.03 29.94C25.97 30.65 25.73 30.93 25.04 30.92C24.07 30.9 23.08 30.97 22.15 30.77C20.21 30.34 18.64 29.21 17.37 27.68C15.14 24.97 13.51 21.89 12.13 18.66C11.84 17.99 12.02 17.69 12.73 17.67C13.8 17.64 14.88 17.63 15.96 17.62C16.54 17.61 16.9 17.9 17.15 18.43C17.8 19.83 18.49 21.21 19.22 22.56C19.43 22.97 19.78 23.33 20.13 23.63C20.59 24.04 21.01 23.92 21.19 23.32C21.5 22.24 21.5 21.15 21.42 20.04C21.4 19.83 21.38 19.62 21.35 19.42C21.2 18.52 21.07 18.4 19.99 17.96C19.96 17.91 19.93 17.85 19.9 17.8Z" fill="#FFFFFF" fill-opacity="1.000000" fill-rule="nonzero"/>
	</g>
</svg>
