<svg width="32" height="32" viewBox="0 0 32 32" fill="none" xmlns="http://www.w3.org/2000/svg">
<path d="M15.9985 17.2681C19.7908 17.2681 22.8741 14.2925 22.8741 10.6355C22.8741 6.9785 19.7908 4 15.9985 4C12.2092 4 9.12593 6.97563 9.12593 10.6355C9.12593 14.2954 12.2092 17.2681 15.9985 17.2681ZM15.9985 5.76813C18.7779 5.76813 21.039 7.95025 21.039 10.6326C21.039 13.315 18.7779 15.4971 15.9985 15.4971C13.2191 15.5 10.958 13.3179 10.958 10.6355C10.958 7.95312 13.2191 5.76813 15.9985 5.76813ZM27 26.1145V27H5V26.1145C5 22.193 7.21936 18.7689 10.5082 16.9318C11.0474 17.3687 11.6432 17.7396 12.2837 18.0386C9.3434 19.3036 7.21341 22.0119 6.87976 25.229H25.1202C24.7866 22.0119 22.6566 19.3036 19.7163 18.0386C20.3568 17.7396 20.9526 17.3687 21.4918 16.9318C24.7777 18.7689 27 22.193 27 26.1145Z" fill="white"/>
</svg>
