<svg width="33" height="32" viewBox="0 0 33 32" fill="none" xmlns="http://www.w3.org/2000/svg">
<path d="M14 5C13.4477 5 13 5.44772 13 6C13 6.55228 13.4477 7 14 7H19C19.5523 7 20 6.55228 20 6C20 5.44772 19.5523 5 19 5H14Z" fill="white"/>
<path d="M15.5 25C15.5 24.4477 15.9477 24 16.5 24C17.0523 24 17.5 24.4477 17.5 25C17.5 25.5523 17.0523 26 16.5 26C15.9477 26 15.5 25.5523 15.5 25Z" fill="white"/>
<path fill-rule="evenodd" clip-rule="evenodd" d="M8.5 6C8.5 3.79086 10.2909 2 12.5 2H20.5C22.7091 2 24.5 3.79086 24.5 6V25C24.5 27.2091 22.7091 29 20.5 29H12.5C10.2909 29 8.5 27.2091 8.5 25V6ZM12.5 4C11.3954 4 10.5 4.89543 10.5 6V8H22.5V6C22.5 4.89543 21.6046 4 20.5 4H12.5ZM10.5 21V10H22.5V21H10.5ZM10.5 23V25C10.5 26.1046 11.3954 27 12.5 27H20.5C21.6046 27 22.5 26.1046 22.5 25V23H10.5Z" fill="white"/>
</svg>
