<svg width="88" height="88" viewBox="0 0 88 88" fill="none" xmlns="http://www.w3.org/2000/svg">
<rect width="88" height="88" rx="8" fill="#F1F5FF"/>
<path d="M25 46.058V27.1099L44 21.0496L63 27.1099V46.058C63 47.8267 62.4667 49.5536 61.4707 51.0116L60.963 51.7548L61.7531 52.2946L60.9629 51.7548C58.0656 55.9962 54.3003 59.5678 49.9186 62.2316L44 65.8297L38.0814 62.2316C33.6997 59.5678 29.9344 55.9962 27.0371 51.7548L27.037 51.7548L26.5293 51.0116C26.5293 51.0116 26.5293 51.0116 26.5293 51.0116C25.5333 49.5536 25 47.8267 25 46.058Z" stroke="#2770F1" stroke-width="2"/>
<path d="M34.3088 41.2564C33.8971 41.6671 33.8971 42.3329 34.3088 42.7436L40.2726 48.692C40.6843 49.1027 41.3519 49.1027 41.7636 48.692L53.6912 36.7951C54.1029 36.3844 54.1029 35.7186 53.6912 35.308C53.2795 34.8973 52.612 34.8973 52.2003 35.308L41.0181 46.4613L35.7997 41.2564C35.388 40.8458 34.7205 40.8458 34.3088 41.2564Z" fill="#162C5B"/>
</svg>
