<svg width="48" height="48" viewBox="0 0 48 48" fill="none" xmlns="http://www.w3.org/2000/svg">
<rect width="48" height="48" rx="24" fill="#2770F1" fill-opacity="0.2"/>
<path d="M19.9076 17.8071C20.2448 17.6057 20.5539 17.3084 20.9098 17.2317C22.2961 16.9249 23.7012 16.9441 25.0968 17.1646C25.79 17.2797 26.0522 17.6153 26.0522 18.3632C26.0616 19.4851 26.0148 20.5974 26.0054 21.7192C26.0054 22.1795 25.996 22.6493 26.0803 23.1C26.1272 23.3493 26.3145 23.6657 26.5206 23.7712C26.6705 23.8479 27.017 23.6753 27.1856 23.5123C28.1598 22.6014 28.7593 21.422 29.3681 20.2522C29.6866 19.6481 29.9488 19.0152 30.2017 18.3824C30.3984 17.8934 30.6701 17.6632 31.2134 17.6728C32.4779 17.7016 33.7424 17.6536 35.0069 17.6345C35.878 17.6249 36.234 18.0468 35.8406 18.8235C35.3067 19.8782 34.651 20.8754 34.0047 21.8631C33.4895 22.6493 32.8994 23.3685 32.3748 24.1356C31.9159 24.8068 31.9721 25.1999 32.5247 25.7944C33.4052 26.7437 34.3232 27.6546 35.1755 28.6327C35.4846 28.9875 35.7282 29.4477 35.8968 29.8984C36.1028 30.4545 35.8312 30.8764 35.2505 30.9052C33.9578 30.9723 32.6559 31.0202 31.3632 30.9915C30.6514 30.9819 30.0612 30.56 29.5742 30.0518C29.0965 29.5532 28.6469 29.0162 28.1785 28.4984C28.0848 28.393 27.9818 28.2971 27.8788 28.1916C26.9796 27.3094 26.455 27.856 26.1834 28.719C26.0616 29.1025 26.0616 29.534 26.0335 29.9463C25.9773 30.6559 25.7338 30.934 25.0406 30.9244C24.0758 30.9052 23.083 30.9723 22.1556 30.7709C20.2167 30.349 18.6431 29.2176 17.3786 27.6834C15.1492 24.9794 13.5194 21.8918 12.1331 18.67C11.8428 17.9988 12.0207 17.692 12.7326 17.6728C13.8098 17.6441 14.887 17.6345 15.9642 17.6249C16.5449 17.6153 16.9008 17.9029 17.1538 18.4399C17.8094 19.8303 18.4932 21.211 19.2238 22.563C19.4393 22.9754 19.7858 23.3301 20.1324 23.637C20.5914 24.0493 21.0129 23.9246 21.1909 23.3205C21.5 22.2466 21.5093 21.1535 21.425 20.0412C21.4063 19.8303 21.3876 19.6289 21.3501 19.4275C21.2002 18.5262 21.0785 18.4016 19.9919 17.9605C19.9638 17.9125 19.9357 17.855 19.9076 17.8071Z" fill="white"/>
</svg>
