<svg width="22" height="23" viewBox="0 0 22 23" fill="none" xmlns="http://www.w3.org/2000/svg">
<path d="M10.9985 13.2681C14.7908 13.2681 17.8741 10.2925 17.8741 6.6355C17.8741 2.9785 14.7908 0 10.9985 0C7.20921 0 4.12593 2.97563 4.12593 6.6355C4.12593 10.2954 7.20921 13.2681 10.9985 13.2681ZM10.9985 1.76813C13.7779 1.76813 16.039 3.95025 16.039 6.63263C16.039 9.315 13.7779 11.4971 10.9985 11.4971C8.21909 11.5 5.95802 9.31787 5.95802 6.6355C5.95802 3.95312 8.21909 1.76813 10.9985 1.76813ZM22 22.1145V23H0V22.1145C0 18.193 2.21936 14.7689 5.50819 12.9318C6.04739 13.3687 6.6432 13.7396 7.28368 14.0386C4.3434 15.3036 2.21341 18.0119 1.87976 21.229H20.1202C19.7866 18.0119 17.6566 15.3036 14.7163 14.0386C15.3568 13.7396 15.9526 13.3687 16.4918 12.9318C19.7777 14.7689 22 18.193 22 22.1145Z" fill="white"/>
</svg>
