<svg width="24" height="24" viewBox="0 0 24 24" fill="none" xmlns="http://www.w3.org/2000/svg">
<path d="M10.5 9C10.5 9.82843 9.82843 10.5 9 10.5C8.17157 10.5 7.5 9.82843 7.5 9C7.5 8.17157 8.17157 7.5 9 7.5C9.82843 7.5 10.5 8.17157 10.5 9Z" fill="#2770F1"/>
<path d="M15 10.5C15.8284 10.5 16.5 9.82843 16.5 9C16.5 8.17157 15.8284 7.5 15 7.5C14.1716 7.5 13.5 8.17157 13.5 9C13.5 9.82843 14.1716 10.5 15 10.5Z" fill="#2770F1"/>
<path fill-rule="evenodd" clip-rule="evenodd" d="M9 23V17H5C2.79086 17 1 15.2091 1 13V5C1 2.79086 2.79086 1 5 1H19C21.2091 1 23 2.79086 23 5V13C23 15.2091 21.2091 17 19 17H15L9 23ZM11 15V18.1716L14.1716 15H19C20.1046 15 21 14.1046 21 13V5C21 3.89543 20.1046 3 19 3H5C3.89543 3 3 3.89543 3 5V13C3 14.1046 3.89543 15 5 15H11Z" fill="#2770F1"/>
</svg>
