<svg width="26" height="26" viewBox="0 0 26 26" fill="none" xmlns="http://www.w3.org/2000/svg">
<path d="M17.9214 23C16.5471 22.842 15.3394 22.476 14.215 21.9021C9.27587 19.382 5.61111 15.6642 3.54552 10.4659C3.27899 9.80047 3.16239 9.08518 3.02079 8.37821C2.97082 8.13701 3.01247 7.82927 3.12907 7.62134C4.04526 5.98283 5.20299 4.54394 6.67722 3.36289C7.3602 2.81395 8.05984 2.88048 8.54292 3.61241C9.40913 4.92654 10.2504 6.26562 11 7.65461C11.5497 8.67763 11.4081 9.04359 10.5419 9.82542C10.4503 9.90859 10.3586 9.99176 10.2587 10.0749C9.50908 10.7071 9.50075 10.7071 9.90887 11.5804C10.9583 13.8094 12.6408 15.3814 14.9313 16.3046C15.2061 16.4127 15.381 16.3961 15.5643 16.1466C15.8141 15.8139 16.1056 15.5144 16.3805 15.2067C16.8386 14.691 17.3883 14.5413 18.0296 14.8324C18.621 15.1069 19.2124 15.3814 19.7704 15.7141C20.6033 16.2131 21.4029 16.762 22.2108 17.2943C22.3774 17.4108 22.544 17.5522 22.6689 17.7102C23.0937 18.2259 23.1353 18.7166 22.6439 19.2489C21.8527 20.0973 21.0031 20.8957 20.1285 21.6609C19.6205 22.1017 19.0208 22.4427 18.4461 22.8004C18.2629 22.9168 18.0296 22.9584 17.9214 23Z" fill="#2770F1"/>
</svg>
