<svg width="24" height="24" viewBox="0 0 24 24" fill="none" xmlns="http://www.w3.org/2000/svg">
<path d="M4.00393 10.6075C4.00393 9.32509 3.99509 8.0427 4.00393 6.76031C4.02162 4.1071 6.04691 2.04643 8.70013 2.0199C11.2384 1.99337 13.7678 1.99337 16.306 2.0199C18.9592 2.04643 20.9845 4.1071 20.9934 6.76031C21.0022 9.25434 21.0022 11.7395 20.9934 14.2335C20.9757 18.6556 17.6238 22.3701 13.3344 22.7327C8.8151 23.113 4.89718 20.1237 4.1189 15.684C4.03931 15.2064 4.01277 14.72 4.00393 14.2335C3.99509 13.0219 4.00393 11.8191 4.00393 10.6075ZM5.9054 13.3668C5.74621 16.1262 6.63946 18.3814 9.00082 19.8495C11.3887 21.3265 13.8562 21.2823 16.1999 19.7257C18.4374 18.2311 19.2599 16.0289 19.1007 13.3668C14.6964 13.3668 10.3274 13.3668 5.9054 13.3668ZM19.0919 11.4034C19.1007 11.2531 19.1096 11.1381 19.1096 11.0232C19.1096 9.62579 19.1184 8.22843 19.1096 6.82222C19.0919 5.08879 17.8803 3.89484 16.138 3.886C13.7059 3.886 11.2737 3.886 8.84163 3.886C7.10819 3.886 5.89656 5.08879 5.87887 6.82222C5.87003 8.21958 5.87887 9.61695 5.87887 11.0232C5.87887 11.1381 5.89656 11.2531 5.9054 11.3946C10.3009 11.4034 14.6699 11.4034 19.0919 11.4034Z" fill="white"/>
<path d="M15.3151 6.7156C15.3151 7.3789 15.3151 7.96261 15.3151 8.59938C14.7049 8.59938 14.1123 8.59938 13.4667 8.59938C13.4667 9.245 13.4667 9.84639 13.4667 10.4743C12.8211 10.4743 12.2286 10.4743 11.5653 10.4743C11.5653 9.87292 11.5653 9.26268 11.5653 8.62591C10.9196 8.62591 10.3271 8.62591 9.70801 8.62591C9.70801 7.98029 9.70801 7.3789 9.70801 6.72444C10.3094 6.72444 10.9108 6.72444 11.5564 6.72444C11.5564 6.08767 11.5564 5.48627 11.5564 4.86719C12.202 4.86719 12.8034 4.86719 13.449 4.86719C13.449 5.47743 13.449 6.07882 13.449 6.7156C14.0858 6.7156 14.6872 6.7156 15.3151 6.7156Z" fill="white"/>
</svg>
