<svg width="24" height="24" viewBox="0 0 24 24" fill="none" xmlns="http://www.w3.org/2000/svg">
<path d="M15.0762 4.38439C14.7839 4.10142 14.5617 3.8886 14.3419 3.67345C13.9162 3.25717 13.4438 3.25717 13.0206 3.68046C11.7741 4.92695 10.5299 6.17344 9.2881 7.42227C9.094 7.61872 8.88118 7.74968 8.59353 7.74032C8.25209 7.73097 8.00419 7.57194 7.85218 7.27494C7.70017 6.97793 7.72356 6.67859 7.91767 6.40263C7.97847 6.3161 8.05564 6.2436 8.13048 6.16877C9.34657 4.95502 10.5627 3.74127 11.7787 2.52986C12.9036 1.40966 14.4658 1.40498 15.586 2.52518C15.7918 2.73098 15.9836 2.94614 16.2081 3.18468C16.6641 2.72397 17.0898 2.296 17.5177 1.86803C17.92 1.46578 18.3947 1.19684 18.9537 1.07757C19.9429 0.864756 20.8246 1.08926 21.5799 1.75811C21.8769 2.02004 22.1623 2.30067 22.4031 2.61405C23.2871 3.75998 23.1772 5.35492 22.1529 6.40029C21.4373 7.12994 20.71 7.84556 19.9873 8.5682C16.4162 12.1346 12.8475 15.7034 9.27875 19.2721C9.18754 19.3633 9.07996 19.4522 8.96537 19.5083C6.74835 20.6145 4.52899 21.7183 2.30963 22.8221C1.87699 23.0373 1.53087 23.0022 1.24556 22.7146C0.962584 22.4293 0.922827 22.0668 1.1333 21.6458C2.17399 19.5621 3.22404 17.483 4.2507 15.3947C4.44012 15.0088 4.681 14.6837 4.98503 14.382C8.25677 11.1267 11.5192 7.85959 14.7839 4.59955C14.8587 4.52237 14.9546 4.47326 15.0762 4.38439ZM6.52852 15.3292C7.21842 16.0214 7.94105 16.7464 8.62627 17.4316C11.8512 14.2043 15.0996 10.9583 18.3363 7.72162C17.6417 7.03172 16.9261 6.31844 16.2198 5.61685C12.9878 8.85351 9.7418 12.1065 6.52852 15.3292ZM19.6202 6.50553C20.0785 6.05183 20.5533 5.60516 20.9976 5.13275C21.3437 4.76559 21.4326 4.21367 21.1449 3.81844C20.8713 3.44426 20.5252 3.09347 20.1417 2.83154C19.7441 2.55792 19.2507 2.6047 18.8905 2.9321C18.3924 3.38346 17.948 3.89796 17.4967 4.37036C18.1819 5.06026 18.8928 5.77354 19.6202 6.50553ZM5.42235 16.8586C4.89616 17.9297 4.3536 19.0312 3.81337 20.1351C3.8274 20.1467 3.84144 20.1584 3.85547 20.1701C4.95462 19.6299 6.05144 19.092 7.13189 18.5588C6.55658 17.9882 5.99297 17.4269 5.42235 16.8586Z" fill="white"/>
</svg>
