<svg width="126" height="327" viewBox="0 0 126 327" fill="none" xmlns="http://www.w3.org/2000/svg">
<path d="M3.5 7C5.43311 7 7 5.43298 7 3.5C7 1.56702 5.43311 0 3.5 0C1.56689 0 0 1.56702 0 3.5C0 5.43298 1.56689 7 3.5 7Z" fill="#C0D3FB"/>
<path d="M3.5 23C5.43311 23 7 21.433 7 19.5C7 17.567 5.43311 16 3.5 16C1.56689 16 0 17.567 0 19.5C0 21.433 1.56689 23 3.5 23Z" fill="#C0D3FB"/>
<path d="M7 35.5C7 37.433 5.43311 39 3.5 39C1.56689 39 0 37.433 0 35.5C0 33.567 1.56689 32 3.5 32C5.43311 32 7 33.567 7 35.5Z" fill="#C0D3FB"/>
<path d="M3.5 55C5.43311 55 7 53.433 7 51.5C7 49.567 5.43311 48 3.5 48C1.56689 48 0 49.567 0 51.5C0 53.433 1.56689 55 3.5 55Z" fill="#C0D3FB"/>
<path d="M7 67.5C7 69.433 5.43311 71 3.5 71C1.56689 71 0 69.433 0 67.5C0 65.567 1.56689 64 3.5 64C5.43311 64 7 65.567 7 67.5Z" fill="#C0D3FB"/>
<path d="M3.5 87C5.43311 87 7 85.433 7 83.5C7 81.567 5.43311 80 3.5 80C1.56689 80 0 81.567 0 83.5C0 85.433 1.56689 87 3.5 87Z" fill="#C0D3FB"/>
<path d="M24 3.5C24 5.43298 22.4331 7 20.5 7C18.5669 7 17 5.43298 17 3.5C17 1.56702 18.5669 0 20.5 0C22.4331 0 24 1.56702 24 3.5Z" fill="#C0D3FB"/>
<path d="M20.5 23C22.4331 23 24 21.433 24 19.5C24 17.567 22.4331 16 20.5 16C18.5669 16 17 17.567 17 19.5C17 21.433 18.5669 23 20.5 23Z" fill="#C0D3FB"/>
<path d="M24 35.5C24 37.433 22.4331 39 20.5 39C18.5669 39 17 37.433 17 35.5C17 33.567 18.5669 32 20.5 32C22.4331 32 24 33.567 24 35.5Z" fill="#C0D3FB"/>
<path d="M20.5 55C22.4331 55 24 53.433 24 51.5C24 49.567 22.4331 48 20.5 48C18.5669 48 17 49.567 17 51.5C17 53.433 18.5669 55 20.5 55Z" fill="#C0D3FB"/>
<path d="M24 67.5C24 69.433 22.4331 71 20.5 71C18.5669 71 17 69.433 17 67.5C17 65.567 18.5669 64 20.5 64C22.4331 64 24 65.567 24 67.5Z" fill="#C0D3FB"/>
<path d="M20.5 87C22.4331 87 24 85.433 24 83.5C24 81.567 22.4331 80 20.5 80C18.5669 80 17 81.567 17 83.5C17 85.433 18.5669 87 20.5 87Z" fill="#C0D3FB"/>
<path d="M41 3.5C41 5.43298 39.4331 7 37.5 7C35.5669 7 34 5.43298 34 3.5C34 1.56702 35.5669 0 37.5 0C39.4331 0 41 1.56702 41 3.5Z" fill="#C0D3FB"/>
<path d="M37.5 23C39.4331 23 41 21.433 41 19.5C41 17.567 39.4331 16 37.5 16C35.5669 16 34 17.567 34 19.5C34 21.433 35.5669 23 37.5 23Z" fill="#C0D3FB"/>
<path d="M41 35.5C41 37.433 39.4331 39 37.5 39C35.5669 39 34 37.433 34 35.5C34 33.567 35.5669 32 37.5 32C39.4331 32 41 33.567 41 35.5Z" fill="#C0D3FB"/>
<path d="M37.5 55C39.4331 55 41 53.433 41 51.5C41 49.567 39.4331 48 37.5 48C35.5669 48 34 49.567 34 51.5C34 53.433 35.5669 55 37.5 55Z" fill="#C0D3FB"/>
<path d="M41 67.5C41 69.433 39.4331 71 37.5 71C35.5669 71 34 69.433 34 67.5C34 65.567 35.5669 64 37.5 64C39.4331 64 41 65.567 41 67.5Z" fill="#C0D3FB"/>
<path d="M37.5 87C39.4331 87 41 85.433 41 83.5C41 81.567 39.4331 80 37.5 80C35.5669 80 34 81.567 34 83.5C34 85.433 35.5669 87 37.5 87Z" fill="#C0D3FB"/>
<path d="M58 3.5C58 5.43298 56.4331 7 54.5 7C52.5669 7 51 5.43298 51 3.5C51 1.56702 52.5669 0 54.5 0C56.4331 0 58 1.56702 58 3.5Z" fill="#C0D3FB"/>
<path d="M54.5 23C56.4331 23 58 21.433 58 19.5C58 17.567 56.4331 16 54.5 16C52.5669 16 51 17.567 51 19.5C51 21.433 52.5669 23 54.5 23Z" fill="#C0D3FB"/>
<path d="M58 35.5C58 37.433 56.4331 39 54.5 39C52.5669 39 51 37.433 51 35.5C51 33.567 52.5669 32 54.5 32C56.4331 32 58 33.567 58 35.5Z" fill="#C0D3FB"/>
<path d="M54.5 55C56.4331 55 58 53.433 58 51.5C58 49.567 56.4331 48 54.5 48C52.5669 48 51 49.567 51 51.5C51 53.433 52.5669 55 54.5 55Z" fill="#C0D3FB"/>
<path d="M58 67.5C58 69.433 56.4331 71 54.5 71C52.5669 71 51 69.433 51 67.5C51 65.567 52.5669 64 54.5 64C56.4331 64 58 65.567 58 67.5Z" fill="#C0D3FB"/>
<path d="M54.5 87C56.4331 87 58 85.433 58 83.5C58 81.567 56.4331 80 54.5 80C52.5669 80 51 81.567 51 83.5C51 85.433 52.5669 87 54.5 87Z" fill="#C0D3FB"/>
<path d="M7 99.5C7 101.433 5.43311 103 3.5 103C1.56689 103 0 101.433 0 99.5C0 97.567 1.56689 96 3.5 96C5.43311 96 7 97.567 7 99.5Z" fill="#C0D3FB"/>
<path d="M20.5 103C22.4331 103 24 101.433 24 99.5C24 97.567 22.4331 96 20.5 96C18.5669 96 17 97.567 17 99.5C17 101.433 18.5669 103 20.5 103Z" fill="#C0D3FB"/>
<path d="M41 99.5C41 101.433 39.4331 103 37.5 103C35.5669 103 34 101.433 34 99.5C34 97.567 35.5669 96 37.5 96C39.4331 96 41 97.567 41 99.5Z" fill="#C0D3FB"/>
<path d="M54.5 103C56.4331 103 58 101.433 58 99.5C58 97.567 56.4331 96 54.5 96C52.5669 96 51 97.567 51 99.5C51 101.433 52.5669 103 54.5 103Z" fill="#C0D3FB"/>
<path d="M71.5 7C73.4331 7 75 5.43298 75 3.5C75 1.56702 73.4331 0 71.5 0C69.5669 0 68 1.56702 68 3.5C68 5.43298 69.5669 7 71.5 7Z" fill="#C0D3FB"/>
<path d="M75 19.5C75 21.433 73.4331 23 71.5 23C69.5669 23 68 21.433 68 19.5C68 17.567 69.5669 16 71.5 16C73.4331 16 75 17.567 75 19.5Z" fill="#C0D3FB"/>
<path d="M71.5 39C73.4331 39 75 37.433 75 35.5C75 33.567 73.4331 32 71.5 32C69.5669 32 68 33.567 68 35.5C68 37.433 69.5669 39 71.5 39Z" fill="#C0D3FB"/>
<path d="M75 51.5C75 53.433 73.4331 55 71.5 55C69.5669 55 68 53.433 68 51.5C68 49.567 69.5669 48 71.5 48C73.4331 48 75 49.567 75 51.5Z" fill="#C0D3FB"/>
<path d="M71.5 71C73.4331 71 75 69.433 75 67.5C75 65.567 73.4331 64 71.5 64C69.5669 64 68 65.567 68 67.5C68 69.433 69.5669 71 71.5 71Z" fill="#C0D3FB"/>
<path d="M75 83.5C75 85.433 73.4331 87 71.5 87C69.5669 87 68 85.433 68 83.5C68 81.567 69.5669 80 71.5 80C73.4331 80 75 81.567 75 83.5Z" fill="#C0D3FB"/>
<path d="M88.5 7C90.4331 7 92 5.43298 92 3.5C92 1.56702 90.4331 0 88.5 0C86.5669 0 85 1.56702 85 3.5C85 5.43298 86.5669 7 88.5 7Z" fill="#C0D3FB"/>
<path d="M92 19.5C92 21.433 90.4331 23 88.5 23C86.5669 23 85 21.433 85 19.5C85 17.567 86.5669 16 88.5 16C90.4331 16 92 17.567 92 19.5Z" fill="#C0D3FB"/>
<path d="M88.5 39C90.4331 39 92 37.433 92 35.5C92 33.567 90.4331 32 88.5 32C86.5669 32 85 33.567 85 35.5C85 37.433 86.5669 39 88.5 39Z" fill="#C0D3FB"/>
<path d="M92 51.5C92 53.433 90.4331 55 88.5 55C86.5669 55 85 53.433 85 51.5C85 49.567 86.5669 48 88.5 48C90.4331 48 92 49.567 92 51.5Z" fill="#C0D3FB"/>
<path d="M88.5 71C90.4331 71 92 69.433 92 67.5C92 65.567 90.4331 64 88.5 64C86.5669 64 85 65.567 85 67.5C85 69.433 86.5669 71 88.5 71Z" fill="#C0D3FB"/>
<path d="M92 83.5C92 85.433 90.4331 87 88.5 87C86.5669 87 85 85.433 85 83.5C85 81.567 86.5669 80 88.5 80C90.4331 80 92 81.567 92 83.5Z" fill="#C0D3FB"/>
<path d="M105.5 7C107.433 7 109 5.43298 109 3.5C109 1.56702 107.433 0 105.5 0C103.567 0 102 1.56702 102 3.5C102 5.43298 103.567 7 105.5 7Z" fill="#C0D3FB"/>
<path d="M109 19.5C109 21.433 107.433 23 105.5 23C103.567 23 102 21.433 102 19.5C102 17.567 103.567 16 105.5 16C107.433 16 109 17.567 109 19.5Z" fill="#C0D3FB"/>
<path d="M105.5 39C107.433 39 109 37.433 109 35.5C109 33.567 107.433 32 105.5 32C103.567 32 102 33.567 102 35.5C102 37.433 103.567 39 105.5 39Z" fill="#C0D3FB"/>
<path d="M109 51.5C109 53.433 107.433 55 105.5 55C103.567 55 102 53.433 102 51.5C102 49.567 103.567 48 105.5 48C107.433 48 109 49.567 109 51.5Z" fill="#C0D3FB"/>
<path d="M105.5 71C107.433 71 109 69.433 109 67.5C109 65.567 107.433 64 105.5 64C103.567 64 102 65.567 102 67.5C102 69.433 103.567 71 105.5 71Z" fill="#C0D3FB"/>
<path d="M109 83.5C109 85.433 107.433 87 105.5 87C103.567 87 102 85.433 102 83.5C102 81.567 103.567 80 105.5 80C107.433 80 109 81.567 109 83.5Z" fill="#C0D3FB"/>
<path d="M122.5 7C124.433 7 126 5.43298 126 3.5C126 1.56702 124.433 0 122.5 0C120.567 0 119 1.56702 119 3.5C119 5.43298 120.567 7 122.5 7Z" fill="#C0D3FB"/>
<path d="M126 19.5C126 21.433 124.433 23 122.5 23C120.567 23 119 21.433 119 19.5C119 17.567 120.567 16 122.5 16C124.433 16 126 17.567 126 19.5Z" fill="#C0D3FB"/>
<path d="M122.5 39C124.433 39 126 37.433 126 35.5C126 33.567 124.433 32 122.5 32C120.567 32 119 33.567 119 35.5C119 37.433 120.567 39 122.5 39Z" fill="#C0D3FB"/>
<path d="M126 51.5C126 53.433 124.433 55 122.5 55C120.567 55 119 53.433 119 51.5C119 49.567 120.567 48 122.5 48C124.433 48 126 49.567 126 51.5Z" fill="#C0D3FB"/>
<path d="M122.5 71C124.433 71 126 69.433 126 67.5C126 65.567 124.433 64 122.5 64C120.567 64 119 65.567 119 67.5C119 69.433 120.567 71 122.5 71Z" fill="#C0D3FB"/>
<path d="M126 83.5C126 85.433 124.433 87 122.5 87C120.567 87 119 85.433 119 83.5C119 81.567 120.567 80 122.5 80C124.433 80 126 81.567 126 83.5Z" fill="#C0D3FB"/>
<path d="M75 99.5C75 101.433 73.4331 103 71.5 103C69.5669 103 68 101.433 68 99.5C68 97.567 69.5669 96 71.5 96C73.4331 96 75 97.567 75 99.5Z" fill="#C0D3FB"/>
<path d="M88.5 103C90.4331 103 92 101.433 92 99.5C92 97.567 90.4331 96 88.5 96C86.5669 96 85 97.567 85 99.5C85 101.433 86.5669 103 88.5 103Z" fill="#C0D3FB"/>
<path d="M109 99.5C109 101.433 107.433 103 105.5 103C103.567 103 102 101.433 102 99.5C102 97.567 103.567 96 105.5 96C107.433 96 109 97.567 109 99.5Z" fill="#C0D3FB"/>
<path d="M122.5 103C124.433 103 126 101.433 126 99.5C126 97.567 124.433 96 122.5 96C120.567 96 119 97.567 119 99.5C119 101.433 120.567 103 122.5 103Z" fill="#C0D3FB"/>
<path d="M7 115.5C7 117.433 5.43311 119 3.5 119C1.56689 119 0 117.433 0 115.5C0 113.567 1.56689 112 3.5 112C5.43311 112 7 113.567 7 115.5Z" fill="#C0D3FB"/>
<path d="M7 131.5C7 133.433 5.43311 135 3.5 135C1.56689 135 0 133.433 0 131.5C0 129.567 1.56689 128 3.5 128C5.43311 128 7 129.567 7 131.5Z" fill="#C0D3FB"/>
<path d="M3.5 151C5.43311 151 7 149.433 7 147.5C7 145.567 5.43311 144 3.5 144C1.56689 144 0 145.567 0 147.5C0 149.433 1.56689 151 3.5 151Z" fill="#C0D3FB"/>
<path d="M7 163.5C7 165.433 5.43311 167 3.5 167C1.56689 167 0 165.433 0 163.5C0 161.567 1.56689 160 3.5 160C5.43311 160 7 161.567 7 163.5Z" fill="#C0D3FB"/>
<path d="M3.5 183C5.43311 183 7 181.433 7 179.5C7 177.567 5.43311 176 3.5 176C1.56689 176 0 177.567 0 179.5C0 181.433 1.56689 183 3.5 183Z" fill="#C0D3FB"/>
<path d="M7 195.5C7 197.433 5.43311 199 3.5 199C1.56689 199 0 197.433 0 195.5C0 193.567 1.56689 192 3.5 192C5.43311 192 7 193.567 7 195.5Z" fill="#C0D3FB"/>
<path d="M20.5 119C22.4331 119 24 117.433 24 115.5C24 113.567 22.4331 112 20.5 112C18.5669 112 17 113.567 17 115.5C17 117.433 18.5669 119 20.5 119Z" fill="#C0D3FB"/>
<path d="M24 131.5C24 133.433 22.4331 135 20.5 135C18.5669 135 17 133.433 17 131.5C17 129.567 18.5669 128 20.5 128C22.4331 128 24 129.567 24 131.5Z" fill="#C0D3FB"/>
<path d="M20.5 151C22.4331 151 24 149.433 24 147.5C24 145.567 22.4331 144 20.5 144C18.5669 144 17 145.567 17 147.5C17 149.433 18.5669 151 20.5 151Z" fill="#C0D3FB"/>
<path d="M24 163.5C24 165.433 22.4331 167 20.5 167C18.5669 167 17 165.433 17 163.5C17 161.567 18.5669 160 20.5 160C22.4331 160 24 161.567 24 163.5Z" fill="#C0D3FB"/>
<path d="M20.5 183C22.4331 183 24 181.433 24 179.5C24 177.567 22.4331 176 20.5 176C18.5669 176 17 177.567 17 179.5C17 181.433 18.5669 183 20.5 183Z" fill="#C0D3FB"/>
<path d="M24 195.5C24 197.433 22.4331 199 20.5 199C18.5669 199 17 197.433 17 195.5C17 193.567 18.5669 192 20.5 192C22.4331 192 24 193.567 24 195.5Z" fill="#C0D3FB"/>
<path d="M37.5 119C39.4331 119 41 117.433 41 115.5C41 113.567 39.4331 112 37.5 112C35.5669 112 34 113.567 34 115.5C34 117.433 35.5669 119 37.5 119Z" fill="#C0D3FB"/>
<path d="M41 131.5C41 133.433 39.4331 135 37.5 135C35.5669 135 34 133.433 34 131.5C34 129.567 35.5669 128 37.5 128C39.4331 128 41 129.567 41 131.5Z" fill="#C0D3FB"/>
<path d="M37.5 151C39.4331 151 41 149.433 41 147.5C41 145.567 39.4331 144 37.5 144C35.5669 144 34 145.567 34 147.5C34 149.433 35.5669 151 37.5 151Z" fill="#C0D3FB"/>
<path d="M41 163.5C41 165.433 39.4331 167 37.5 167C35.5669 167 34 165.433 34 163.5C34 161.567 35.5669 160 37.5 160C39.4331 160 41 161.567 41 163.5Z" fill="#C0D3FB"/>
<path d="M37.5 183C39.4331 183 41 181.433 41 179.5C41 177.567 39.4331 176 37.5 176C35.5669 176 34 177.567 34 179.5C34 181.433 35.5669 183 37.5 183Z" fill="#C0D3FB"/>
<path d="M41 195.5C41 197.433 39.4331 199 37.5 199C35.5669 199 34 197.433 34 195.5C34 193.567 35.5669 192 37.5 192C39.4331 192 41 193.567 41 195.5Z" fill="#C0D3FB"/>
<path d="M54.5 119C56.4331 119 58 117.433 58 115.5C58 113.567 56.4331 112 54.5 112C52.5669 112 51 113.567 51 115.5C51 117.433 52.5669 119 54.5 119Z" fill="#C0D3FB"/>
<path d="M58 131.5C58 133.433 56.4331 135 54.5 135C52.5669 135 51 133.433 51 131.5C51 129.567 52.5669 128 54.5 128C56.4331 128 58 129.567 58 131.5Z" fill="#C0D3FB"/>
<path d="M54.5 151C56.4331 151 58 149.433 58 147.5C58 145.567 56.4331 144 54.5 144C52.5669 144 51 145.567 51 147.5C51 149.433 52.5669 151 54.5 151Z" fill="#C0D3FB"/>
<path d="M58 163.5C58 165.433 56.4331 167 54.5 167C52.5669 167 51 165.433 51 163.5C51 161.567 52.5669 160 54.5 160C56.4331 160 58 161.567 58 163.5Z" fill="#C0D3FB"/>
<path d="M54.5 183C56.4331 183 58 181.433 58 179.5C58 177.567 56.4331 176 54.5 176C52.5669 176 51 177.567 51 179.5C51 181.433 52.5669 183 54.5 183Z" fill="#C0D3FB"/>
<path d="M58 195.5C58 197.433 56.4331 199 54.5 199C52.5669 199 51 197.433 51 195.5C51 193.567 52.5669 192 54.5 192C56.4331 192 58 193.567 58 195.5Z" fill="#C0D3FB"/>
<path d="M3.5 215C5.43311 215 7 213.433 7 211.5C7 209.567 5.43311 208 3.5 208C1.56689 208 0 209.567 0 211.5C0 213.433 1.56689 215 3.5 215Z" fill="#C0D3FB"/>
<path d="M24 211.5C24 213.433 22.4331 215 20.5 215C18.5669 215 17 213.433 17 211.5C17 209.567 18.5669 208 20.5 208C22.4331 208 24 209.567 24 211.5Z" fill="#C0D3FB"/>
<path d="M37.5 215C39.4331 215 41 213.433 41 211.5C41 209.567 39.4331 208 37.5 208C35.5669 208 34 209.567 34 211.5C34 213.433 35.5669 215 37.5 215Z" fill="#C0D3FB"/>
<path d="M58 211.5C58 213.433 56.4331 215 54.5 215C52.5669 215 51 213.433 51 211.5C51 209.567 52.5669 208 54.5 208C56.4331 208 58 209.567 58 211.5Z" fill="#C0D3FB"/>
<path d="M75 115.5C75 117.433 73.4331 119 71.5 119C69.5669 119 68 117.433 68 115.5C68 113.567 69.5669 112 71.5 112C73.4331 112 75 113.567 75 115.5Z" fill="#C0D3FB"/>
<path d="M71.5 135C73.4331 135 75 133.433 75 131.5C75 129.567 73.4331 128 71.5 128C69.5669 128 68 129.567 68 131.5C68 133.433 69.5669 135 71.5 135Z" fill="#C0D3FB"/>
<path d="M75 147.5C75 149.433 73.4331 151 71.5 151C69.5669 151 68 149.433 68 147.5C68 145.567 69.5669 144 71.5 144C73.4331 144 75 145.567 75 147.5Z" fill="#C0D3FB"/>
<path d="M71.5 167C73.4331 167 75 165.433 75 163.5C75 161.567 73.4331 160 71.5 160C69.5669 160 68 161.567 68 163.5C68 165.433 69.5669 167 71.5 167Z" fill="#C0D3FB"/>
<path d="M75 179.5C75 181.433 73.4331 183 71.5 183C69.5669 183 68 181.433 68 179.5C68 177.567 69.5669 176 71.5 176C73.4331 176 75 177.567 75 179.5Z" fill="#C0D3FB"/>
<path d="M71.5 199C73.4331 199 75 197.433 75 195.5C75 193.567 73.4331 192 71.5 192C69.5669 192 68 193.567 68 195.5C68 197.433 69.5669 199 71.5 199Z" fill="#C0D3FB"/>
<path d="M92 115.5C92 117.433 90.4331 119 88.5 119C86.5669 119 85 117.433 85 115.5C85 113.567 86.5669 112 88.5 112C90.4331 112 92 113.567 92 115.5Z" fill="#C0D3FB"/>
<path d="M88.5 135C90.4331 135 92 133.433 92 131.5C92 129.567 90.4331 128 88.5 128C86.5669 128 85 129.567 85 131.5C85 133.433 86.5669 135 88.5 135Z" fill="#C0D3FB"/>
<path d="M92 147.5C92 149.433 90.4331 151 88.5 151C86.5669 151 85 149.433 85 147.5C85 145.567 86.5669 144 88.5 144C90.4331 144 92 145.567 92 147.5Z" fill="#C0D3FB"/>
<path d="M88.5 167C90.4331 167 92 165.433 92 163.5C92 161.567 90.4331 160 88.5 160C86.5669 160 85 161.567 85 163.5C85 165.433 86.5669 167 88.5 167Z" fill="#C0D3FB"/>
<path d="M92 179.5C92 181.433 90.4331 183 88.5 183C86.5669 183 85 181.433 85 179.5C85 177.567 86.5669 176 88.5 176C90.4331 176 92 177.567 92 179.5Z" fill="#C0D3FB"/>
<path d="M88.5 199C90.4331 199 92 197.433 92 195.5C92 193.567 90.4331 192 88.5 192C86.5669 192 85 193.567 85 195.5C85 197.433 86.5669 199 88.5 199Z" fill="#C0D3FB"/>
<path d="M109 115.5C109 117.433 107.433 119 105.5 119C103.567 119 102 117.433 102 115.5C102 113.567 103.567 112 105.5 112C107.433 112 109 113.567 109 115.5Z" fill="#C0D3FB"/>
<path d="M105.5 135C107.433 135 109 133.433 109 131.5C109 129.567 107.433 128 105.5 128C103.567 128 102 129.567 102 131.5C102 133.433 103.567 135 105.5 135Z" fill="#C0D3FB"/>
<path d="M109 147.5C109 149.433 107.433 151 105.5 151C103.567 151 102 149.433 102 147.5C102 145.567 103.567 144 105.5 144C107.433 144 109 145.567 109 147.5Z" fill="#C0D3FB"/>
<path d="M105.5 167C107.433 167 109 165.433 109 163.5C109 161.567 107.433 160 105.5 160C103.567 160 102 161.567 102 163.5C102 165.433 103.567 167 105.5 167Z" fill="#C0D3FB"/>
<path d="M109 179.5C109 181.433 107.433 183 105.5 183C103.567 183 102 181.433 102 179.5C102 177.567 103.567 176 105.5 176C107.433 176 109 177.567 109 179.5Z" fill="#C0D3FB"/>
<path d="M105.5 199C107.433 199 109 197.433 109 195.5C109 193.567 107.433 192 105.5 192C103.567 192 102 193.567 102 195.5C102 197.433 103.567 199 105.5 199Z" fill="#C0D3FB"/>
<path d="M126 115.5C126 117.433 124.433 119 122.5 119C120.567 119 119 117.433 119 115.5C119 113.567 120.567 112 122.5 112C124.433 112 126 113.567 126 115.5Z" fill="#C0D3FB"/>
<path d="M122.5 135C124.433 135 126 133.433 126 131.5C126 129.567 124.433 128 122.5 128C120.567 128 119 129.567 119 131.5C119 133.433 120.567 135 122.5 135Z" fill="#C0D3FB"/>
<path d="M126 147.5C126 149.433 124.433 151 122.5 151C120.567 151 119 149.433 119 147.5C119 145.567 120.567 144 122.5 144C124.433 144 126 145.567 126 147.5Z" fill="#C0D3FB"/>
<path d="M122.5 167C124.433 167 126 165.433 126 163.5C126 161.567 124.433 160 122.5 160C120.567 160 119 161.567 119 163.5C119 165.433 120.567 167 122.5 167Z" fill="#C0D3FB"/>
<path d="M126 179.5C126 181.433 124.433 183 122.5 183C120.567 183 119 181.433 119 179.5C119 177.567 120.567 176 122.5 176C124.433 176 126 177.567 126 179.5Z" fill="#C0D3FB"/>
<path d="M122.5 199C124.433 199 126 197.433 126 195.5C126 193.567 124.433 192 122.5 192C120.567 192 119 193.567 119 195.5C119 197.433 120.567 199 122.5 199Z" fill="#C0D3FB"/>
<path d="M71.5 215C73.4331 215 75 213.433 75 211.5C75 209.567 73.4331 208 71.5 208C69.5669 208 68 209.567 68 211.5C68 213.433 69.5669 215 71.5 215Z" fill="#C0D3FB"/>
<path d="M92 211.5C92 213.433 90.4331 215 88.5 215C86.5669 215 85 213.433 85 211.5C85 209.567 86.5669 208 88.5 208C90.4331 208 92 209.567 92 211.5Z" fill="#C0D3FB"/>
<path d="M105.5 215C107.433 215 109 213.433 109 211.5C109 209.567 107.433 208 105.5 208C103.567 208 102 209.567 102 211.5C102 213.433 103.567 215 105.5 215Z" fill="#C0D3FB"/>
<path d="M126 211.5C126 213.433 124.433 215 122.5 215C120.567 215 119 213.433 119 211.5C119 209.567 120.567 208 122.5 208C124.433 208 126 209.567 126 211.5Z" fill="#C0D3FB"/>
<path d="M7 227.5C7 229.433 5.43311 231 3.5 231C1.56689 231 0 229.433 0 227.5C0 225.567 1.56689 224 3.5 224C5.43311 224 7 225.567 7 227.5Z" fill="#C0D3FB"/>
<path d="M7 243.5C7 245.433 5.43311 247 3.5 247C1.56689 247 0 245.433 0 243.5C0 241.567 1.56689 240 3.5 240C5.43311 240 7 241.567 7 243.5Z" fill="#C0D3FB"/>
<path d="M3.5 263C5.43311 263 7 261.433 7 259.5C7 257.567 5.43311 256 3.5 256C1.56689 256 0 257.567 0 259.5C0 261.433 1.56689 263 3.5 263Z" fill="#C0D3FB"/>
<path d="M7 275.5C7 277.433 5.43311 279 3.5 279C1.56689 279 0 277.433 0 275.5C0 273.567 1.56689 272 3.5 272C5.43311 272 7 273.567 7 275.5Z" fill="#C0D3FB"/>
<path d="M3.5 295C5.43311 295 7 293.433 7 291.5C7 289.567 5.43311 288 3.5 288C1.56689 288 0 289.567 0 291.5C0 293.433 1.56689 295 3.5 295Z" fill="#C0D3FB"/>
<path d="M7 307.5C7 309.433 5.43311 311 3.5 311C1.56689 311 0 309.433 0 307.5C0 305.567 1.56689 304 3.5 304C5.43311 304 7 305.567 7 307.5Z" fill="#C0D3FB"/>
<path d="M20.5 231C22.4331 231 24 229.433 24 227.5C24 225.567 22.4331 224 20.5 224C18.5669 224 17 225.567 17 227.5C17 229.433 18.5669 231 20.5 231Z" fill="#C0D3FB"/>
<path d="M24 243.5C24 245.433 22.4331 247 20.5 247C18.5669 247 17 245.433 17 243.5C17 241.567 18.5669 240 20.5 240C22.4331 240 24 241.567 24 243.5Z" fill="#C0D3FB"/>
<path d="M20.5 263C22.4331 263 24 261.433 24 259.5C24 257.567 22.4331 256 20.5 256C18.5669 256 17 257.567 17 259.5C17 261.433 18.5669 263 20.5 263Z" fill="#C0D3FB"/>
<path d="M24 275.5C24 277.433 22.4331 279 20.5 279C18.5669 279 17 277.433 17 275.5C17 273.567 18.5669 272 20.5 272C22.4331 272 24 273.567 24 275.5Z" fill="#C0D3FB"/>
<path d="M20.5 295C22.4331 295 24 293.433 24 291.5C24 289.567 22.4331 288 20.5 288C18.5669 288 17 289.567 17 291.5C17 293.433 18.5669 295 20.5 295Z" fill="#C0D3FB"/>
<path d="M24 307.5C24 309.433 22.4331 311 20.5 311C18.5669 311 17 309.433 17 307.5C17 305.567 18.5669 304 20.5 304C22.4331 304 24 305.567 24 307.5Z" fill="#C0D3FB"/>
<path d="M37.5 231C39.4331 231 41 229.433 41 227.5C41 225.567 39.4331 224 37.5 224C35.5669 224 34 225.567 34 227.5C34 229.433 35.5669 231 37.5 231Z" fill="#C0D3FB"/>
<path d="M41 243.5C41 245.433 39.4331 247 37.5 247C35.5669 247 34 245.433 34 243.5C34 241.567 35.5669 240 37.5 240C39.4331 240 41 241.567 41 243.5Z" fill="#C0D3FB"/>
<path d="M37.5 263C39.4331 263 41 261.433 41 259.5C41 257.567 39.4331 256 37.5 256C35.5669 256 34 257.567 34 259.5C34 261.433 35.5669 263 37.5 263Z" fill="#C0D3FB"/>
<path d="M41 275.5C41 277.433 39.4331 279 37.5 279C35.5669 279 34 277.433 34 275.5C34 273.567 35.5669 272 37.5 272C39.4331 272 41 273.567 41 275.5Z" fill="#C0D3FB"/>
<path d="M37.5 295C39.4331 295 41 293.433 41 291.5C41 289.567 39.4331 288 37.5 288C35.5669 288 34 289.567 34 291.5C34 293.433 35.5669 295 37.5 295Z" fill="#C0D3FB"/>
<path d="M41 307.5C41 309.433 39.4331 311 37.5 311C35.5669 311 34 309.433 34 307.5C34 305.567 35.5669 304 37.5 304C39.4331 304 41 305.567 41 307.5Z" fill="#C0D3FB"/>
<path d="M54.5 231C56.4331 231 58 229.433 58 227.5C58 225.567 56.4331 224 54.5 224C52.5669 224 51 225.567 51 227.5C51 229.433 52.5669 231 54.5 231Z" fill="#C0D3FB"/>
<path d="M58 243.5C58 245.433 56.4331 247 54.5 247C52.5669 247 51 245.433 51 243.5C51 241.567 52.5669 240 54.5 240C56.4331 240 58 241.567 58 243.5Z" fill="#C0D3FB"/>
<path d="M54.5 263C56.4331 263 58 261.433 58 259.5C58 257.567 56.4331 256 54.5 256C52.5669 256 51 257.567 51 259.5C51 261.433 52.5669 263 54.5 263Z" fill="#C0D3FB"/>
<path d="M58 275.5C58 277.433 56.4331 279 54.5 279C52.5669 279 51 277.433 51 275.5C51 273.567 52.5669 272 54.5 272C56.4331 272 58 273.567 58 275.5Z" fill="#C0D3FB"/>
<path d="M54.5 295C56.4331 295 58 293.433 58 291.5C58 289.567 56.4331 288 54.5 288C52.5669 288 51 289.567 51 291.5C51 293.433 52.5669 295 54.5 295Z" fill="#C0D3FB"/>
<path d="M58 307.5C58 309.433 56.4331 311 54.5 311C52.5669 311 51 309.433 51 307.5C51 305.567 52.5669 304 54.5 304C56.4331 304 58 305.567 58 307.5Z" fill="#C0D3FB"/>
<path d="M3.5 327C5.43311 327 7 325.433 7 323.5C7 321.567 5.43311 320 3.5 320C1.56689 320 0 321.567 0 323.5C0 325.433 1.56689 327 3.5 327Z" fill="#C0D3FB"/>
<path d="M24 323.5C24 325.433 22.4331 327 20.5 327C18.5669 327 17 325.433 17 323.5C17 321.567 18.5669 320 20.5 320C22.4331 320 24 321.567 24 323.5Z" fill="#C0D3FB"/>
<path d="M37.5 327C39.4331 327 41 325.433 41 323.5C41 321.567 39.4331 320 37.5 320C35.5669 320 34 321.567 34 323.5C34 325.433 35.5669 327 37.5 327Z" fill="#C0D3FB"/>
<path d="M58 323.5C58 325.433 56.4331 327 54.5 327C52.5669 327 51 325.433 51 323.5C51 321.567 52.5669 320 54.5 320C56.4331 320 58 321.567 58 323.5Z" fill="#C0D3FB"/>
<path d="M75 227.5C75 229.433 73.4331 231 71.5 231C69.5669 231 68 229.433 68 227.5C68 225.567 69.5669 224 71.5 224C73.4331 224 75 225.567 75 227.5Z" fill="#C0D3FB"/>
<path d="M71.5 247C73.4331 247 75 245.433 75 243.5C75 241.567 73.4331 240 71.5 240C69.5669 240 68 241.567 68 243.5C68 245.433 69.5669 247 71.5 247Z" fill="#C0D3FB"/>
<path d="M75 259.5C75 261.433 73.4331 263 71.5 263C69.5669 263 68 261.433 68 259.5C68 257.567 69.5669 256 71.5 256C73.4331 256 75 257.567 75 259.5Z" fill="#C0D3FB"/>
<path d="M71.5 279C73.4331 279 75 277.433 75 275.5C75 273.567 73.4331 272 71.5 272C69.5669 272 68 273.567 68 275.5C68 277.433 69.5669 279 71.5 279Z" fill="#C0D3FB"/>
<path d="M75 291.5C75 293.433 73.4331 295 71.5 295C69.5669 295 68 293.433 68 291.5C68 289.567 69.5669 288 71.5 288C73.4331 288 75 289.567 75 291.5Z" fill="#C0D3FB"/>
<path d="M71.5 311C73.4331 311 75 309.433 75 307.5C75 305.567 73.4331 304 71.5 304C69.5669 304 68 305.567 68 307.5C68 309.433 69.5669 311 71.5 311Z" fill="#C0D3FB"/>
<path d="M92 227.5C92 229.433 90.4331 231 88.5 231C86.5669 231 85 229.433 85 227.5C85 225.567 86.5669 224 88.5 224C90.4331 224 92 225.567 92 227.5Z" fill="#C0D3FB"/>
<path d="M88.5 247C90.4331 247 92 245.433 92 243.5C92 241.567 90.4331 240 88.5 240C86.5669 240 85 241.567 85 243.5C85 245.433 86.5669 247 88.5 247Z" fill="#C0D3FB"/>
<path d="M92 259.5C92 261.433 90.4331 263 88.5 263C86.5669 263 85 261.433 85 259.5C85 257.567 86.5669 256 88.5 256C90.4331 256 92 257.567 92 259.5Z" fill="#C0D3FB"/>
<path d="M88.5 279C90.4331 279 92 277.433 92 275.5C92 273.567 90.4331 272 88.5 272C86.5669 272 85 273.567 85 275.5C85 277.433 86.5669 279 88.5 279Z" fill="#C0D3FB"/>
<path d="M92 291.5C92 293.433 90.4331 295 88.5 295C86.5669 295 85 293.433 85 291.5C85 289.567 86.5669 288 88.5 288C90.4331 288 92 289.567 92 291.5Z" fill="#C0D3FB"/>
<path d="M88.5 311C90.4331 311 92 309.433 92 307.5C92 305.567 90.4331 304 88.5 304C86.5669 304 85 305.567 85 307.5C85 309.433 86.5669 311 88.5 311Z" fill="#C0D3FB"/>
<path d="M109 227.5C109 229.433 107.433 231 105.5 231C103.567 231 102 229.433 102 227.5C102 225.567 103.567 224 105.5 224C107.433 224 109 225.567 109 227.5Z" fill="#C0D3FB"/>
<path d="M105.5 247C107.433 247 109 245.433 109 243.5C109 241.567 107.433 240 105.5 240C103.567 240 102 241.567 102 243.5C102 245.433 103.567 247 105.5 247Z" fill="#C0D3FB"/>
<path d="M109 259.5C109 261.433 107.433 263 105.5 263C103.567 263 102 261.433 102 259.5C102 257.567 103.567 256 105.5 256C107.433 256 109 257.567 109 259.5Z" fill="#C0D3FB"/>
<path d="M105.5 279C107.433 279 109 277.433 109 275.5C109 273.567 107.433 272 105.5 272C103.567 272 102 273.567 102 275.5C102 277.433 103.567 279 105.5 279Z" fill="#C0D3FB"/>
<path d="M109 291.5C109 293.433 107.433 295 105.5 295C103.567 295 102 293.433 102 291.5C102 289.567 103.567 288 105.5 288C107.433 288 109 289.567 109 291.5Z" fill="#C0D3FB"/>
<path d="M105.5 311C107.433 311 109 309.433 109 307.5C109 305.567 107.433 304 105.5 304C103.567 304 102 305.567 102 307.5C102 309.433 103.567 311 105.5 311Z" fill="#C0D3FB"/>
<path d="M126 227.5C126 229.433 124.433 231 122.5 231C120.567 231 119 229.433 119 227.5C119 225.567 120.567 224 122.5 224C124.433 224 126 225.567 126 227.5Z" fill="#C0D3FB"/>
<path d="M122.5 247C124.433 247 126 245.433 126 243.5C126 241.567 124.433 240 122.5 240C120.567 240 119 241.567 119 243.5C119 245.433 120.567 247 122.5 247Z" fill="#C0D3FB"/>
<path d="M126 259.5C126 261.433 124.433 263 122.5 263C120.567 263 119 261.433 119 259.5C119 257.567 120.567 256 122.5 256C124.433 256 126 257.567 126 259.5Z" fill="#C0D3FB"/>
<path d="M122.5 279C124.433 279 126 277.433 126 275.5C126 273.567 124.433 272 122.5 272C120.567 272 119 273.567 119 275.5C119 277.433 120.567 279 122.5 279Z" fill="#C0D3FB"/>
<path d="M126 291.5C126 293.433 124.433 295 122.5 295C120.567 295 119 293.433 119 291.5C119 289.567 120.567 288 122.5 288C124.433 288 126 289.567 126 291.5Z" fill="#C0D3FB"/>
<path d="M122.5 311C124.433 311 126 309.433 126 307.5C126 305.567 124.433 304 122.5 304C120.567 304 119 305.567 119 307.5C119 309.433 120.567 311 122.5 311Z" fill="#C0D3FB"/>
<path d="M71.5 327C73.4331 327 75 325.433 75 323.5C75 321.567 73.4331 320 71.5 320C69.5669 320 68 321.567 68 323.5C68 325.433 69.5669 327 71.5 327Z" fill="#C0D3FB"/>
<path d="M92 323.5C92 325.433 90.4331 327 88.5 327C86.5669 327 85 325.433 85 323.5C85 321.567 86.5669 320 88.5 320C90.4331 320 92 321.567 92 323.5Z" fill="#C0D3FB"/>
<path d="M105.5 327C107.433 327 109 325.433 109 323.5C109 321.567 107.433 320 105.5 320C103.567 320 102 321.567 102 323.5C102 325.433 103.567 327 105.5 327Z" fill="#C0D3FB"/>
<path d="M126 323.5C126 325.433 124.433 327 122.5 327C120.567 327 119 325.433 119 323.5C119 321.567 120.567 320 122.5 320C124.433 320 126 321.567 126 323.5Z" fill="#C0D3FB"/>
</svg>
