<svg width="152" height="152" viewBox="0 0 152 152" fill="none" xmlns="http://www.w3.org/2000/svg">
<g filter="url(#filter0_d_1574_35)">
<rect x="24" y="20" width="104" height="104" rx="52" fill="#2770F1"/>
<path fill-rule="evenodd" clip-rule="evenodd" d="M83.6117 82.4399C80.1639 85.2614 75.7567 86.9541 70.9541 86.9541C59.9084 86.9541 50.9541 77.9998 50.9541 66.9541C50.9541 55.9084 59.9084 46.9541 70.9541 46.9541C81.9998 46.9541 90.9541 55.9084 90.9541 66.9541C90.9541 71.7566 89.2614 76.1637 86.4401 79.6115L101.046 94.2175L98.2178 97.046L83.6117 82.4399ZM86.9541 66.9541C86.9541 75.7906 79.7906 82.9541 70.9541 82.9541C62.1176 82.9541 54.9541 75.7906 54.9541 66.9541C54.9541 58.1176 62.1176 50.9541 70.9541 50.9541C79.7906 50.9541 86.9541 58.1176 86.9541 66.9541Z" fill="white"/>
<path fill-rule="evenodd" clip-rule="evenodd" d="M72.5 61H69.5V65.5H65V68.5H69.5V73H72.5V68.5H77V65.5H72.5V61Z" fill="white"/>
</g>
<defs>
<filter id="filter0_d_1574_35" x="0" y="0" width="152" height="152" filterUnits="userSpaceOnUse" color-interpolation-filters="sRGB">
<feFlood flood-opacity="0" result="BackgroundImageFix"/>
<feColorMatrix in="SourceAlpha" type="matrix" values="0 0 0 0 0 0 0 0 0 0 0 0 0 0 0 0 0 0 127 0" result="hardAlpha"/>
<feOffset dy="4"/>
<feGaussianBlur stdDeviation="12"/>
<feComposite in2="hardAlpha" operator="out"/>
<feColorMatrix type="matrix" values="0 0 0 0 0.105882 0 0 0 0 0.192157 0 0 0 0 0.372549 0 0 0 0.15 0"/>
<feBlend mode="normal" in2="BackgroundImageFix" result="effect1_dropShadow_1574_35"/>
<feBlend mode="normal" in="SourceGraphic" in2="effect1_dropShadow_1574_35" result="shape"/>
</filter>
</defs>
</svg>
